<svg width="24" height="24" viewBox="0 0 24 24" fill="none" xmlns="http://www.w3.org/2000/svg">
<path d="M10.2065 1.63397C10.9402 0.147477 13.0598 0.14748 13.7935 1.63397L15.9431 5.98949C16.2344 6.57978 16.7975 6.98891 17.4489 7.08357L22.2555 7.78201C23.896 8.02038 24.551 10.0363 23.3639 11.1934L19.8859 14.5837C19.4145 15.0432 19.1994 15.7052 19.3107 16.354L20.1317 21.1411C20.412 22.7749 18.6971 24.0209 17.2298 23.2495L12.9307 20.9893C12.348 20.683 11.652 20.683 11.0693 20.9893L6.77017 23.2495C5.30291 24.0209 3.58805 22.7749 3.86827 21.1411L4.68933 16.354C4.80061 15.7052 4.58551 15.0432 4.11414 14.5837L0.636054 11.1934C-0.550981 10.0363 0.104037 8.02038 1.74448 7.78201L6.55107 7.08357C7.20249 6.98891 7.76563 6.57978 8.05695 5.98949L10.2065 1.63397Z" fill="#B0AAD0"/>
</svg>
