<svg width="18" height="24" viewBox="0 0 18 24" fill="none" xmlns="http://www.w3.org/2000/svg">
<path d="M11.9296 0.528C11.7623 0.36052 11.5636 0.227677 11.3449 0.137075C11.1263 0.0464734 10.8919 -0.000107108 10.6552 1.8493e-07H2.40156C1.92417 1.8493e-07 1.46634 0.189642 1.12877 0.527208C0.791205 0.864773 0.601562 1.32261 0.601562 1.8V22.2C0.601562 22.6774 0.791205 23.1352 1.12877 23.4728C1.46634 23.8104 1.92417 24 2.40156 24H15.6016C16.079 24 16.5368 23.8104 16.8744 23.4728C17.2119 23.1352 17.4016 22.6774 17.4016 22.2V6.7452C17.4011 6.26797 17.2112 5.81044 16.8736 5.4732L11.9296 0.5268V0.528Z" fill="#656084"/>
</svg>
