<svg width="307" height="185" viewBox="0 0 307 185" fill="none" xmlns="http://www.w3.org/2000/svg">
<path d="M79.5498 133.448L76.1291 127.888C77.2343 124.999 78.5006 122.176 79.9219 119.431L82.1677 121.333L80.4163 118.486C82.2072 115.109 83.6057 112.987 83.6057 112.987C83.6057 112.987 90.4617 124.355 92.5895 136.288L87.9181 143.239L93.0151 139.266C93.166 140.654 93.23 142.05 93.2067 143.446C92.9251 157.521 88.1273 168.839 82.4906 168.725C76.8538 168.611 72.5126 157.108 72.7942 143.033C72.8815 138.669 73.9541 134.124 75.3922 129.929L79.5498 133.448Z" fill="#E6E6E6"/>
<path d="M64.0696 139.656L58.2842 136.674C57.7462 133.627 57.3796 130.552 57.1859 127.463L60.0853 127.923L57.1232 126.396C56.9214 122.575 57.0283 120.031 57.0283 120.031C57.0283 120.031 68.7385 126.197 76.691 135.306L76.2641 143.686L78.5856 137.634C79.428 138.743 80.2002 139.905 80.8976 141.113C87.8886 153.308 89.5967 165.491 84.7127 168.325C79.8288 171.158 70.2022 163.569 63.2112 151.373C61.0439 147.593 59.6267 143.144 58.702 138.805L64.0696 139.656Z" fill="#E6E6E6"/>
<path d="M93.1179 184.667C86.4517 185.096 79.1881 184.642 71.4609 184.667V166.869C78.2699 167.936 85.531 167.826 93.1179 166.869V184.667Z" fill="#E6E6E6"/>
<path d="M250.253 103.262L179.507 114.721L179.207 45.5319L249.953 0L250.253 103.262Z" fill="#E6E6E6"/>
<path d="M243.657 93.0083L182.504 106.277V48.3763L243.657 14.9859V93.0083Z" fill="white"/>
<path d="M237.662 39.9325L186.102 63.1606V55.0107L237.662 29.3863V39.9325Z" fill="#3F3D56"/>
<path d="M237.662 61.6454L186.102 79.9401V71.8987L237.662 51.2393V61.6454Z" fill="#1DBF73"/>
<path d="M206.021 51.5699C206.031 51.5287 206.054 51.492 206.087 51.4653C206.119 51.4386 206.16 51.4234 206.202 51.422C206.244 51.4206 206.286 51.4331 206.32 51.4576C206.354 51.4821 206.38 51.5172 206.393 51.5576L207.227 54.2044L208.227 57.3753C208.242 57.4216 208.239 57.4718 208.219 57.5159C208.198 57.56 208.162 57.5948 208.118 57.6135L206.185 58.4237L204.486 59.1357C204.453 59.1496 204.417 59.1539 204.382 59.1483C204.346 59.1427 204.313 59.1273 204.286 59.1039C204.259 59.0805 204.239 59.0499 204.228 59.0157C204.217 58.9814 204.216 58.9448 204.224 58.9098L205.153 55.1137L206.021 51.5699Z" fill="#E6E6E6"/>
<path d="M202.921 71.3054C202.937 71.2375 202.975 71.1769 203.029 71.1329C203.083 71.0889 203.15 71.0638 203.22 71.0615C203.289 71.0592 203.358 71.0798 203.414 71.1202C203.471 71.1605 203.513 71.2184 203.534 71.2851L204.234 73.5038L205.199 76.5643C205.223 76.6408 205.218 76.7236 205.185 76.7963C205.151 76.8691 205.092 76.9266 205.018 76.9575L203.192 77.7231L201.723 78.3388C201.668 78.3616 201.609 78.3688 201.55 78.3595C201.492 78.3502 201.437 78.3248 201.393 78.2862C201.348 78.2476 201.315 78.1972 201.296 78.1406C201.278 78.0841 201.276 78.0236 201.291 77.966L202.16 74.4131L202.921 71.3054Z" fill="#E6E6E6"/>
<path d="M237.662 83.3583L186.102 96.7197V88.1831L237.662 72.3122V83.3583Z" fill="#F2F2F2"/>
<path d="M236.463 45.7991C236.463 47.6153 235.654 49.4211 234.665 49.8293C233.684 50.2338 232.895 49.1101 232.895 47.3226C232.895 45.5351 233.684 43.7377 234.665 43.3046C235.654 42.8676 236.463 43.9829 236.463 45.7991Z" fill="#3F3D56"/>
<path d="M235.262 46.311C235.262 46.9164 234.993 47.5206 234.663 47.6602C234.333 47.7993 234.066 47.4237 234.066 46.8215C234.066 46.2193 234.333 45.616 234.663 45.4737C234.993 45.3309 235.262 45.7056 235.262 46.311Z" fill="white"/>
<path d="M236.463 66.9088C236.463 68.725 235.654 70.5309 234.665 70.939C233.684 71.3435 232.895 70.2199 232.895 68.4324C232.895 66.6449 233.684 64.8475 234.665 64.4143C235.654 63.9774 236.463 65.0926 236.463 66.9088Z" fill="#1DBF73"/>
<path d="M235.262 67.4207C235.262 68.0261 234.993 68.6303 234.663 68.7699C234.333 68.909 234.066 68.5334 234.066 67.9312C234.066 67.329 234.333 66.7257 234.663 66.5834C234.993 66.4406 235.262 66.8153 235.262 67.4207Z" fill="white"/>
<path d="M236.463 88.0185C236.463 89.8347 235.654 91.6405 234.665 92.0486C233.684 92.4532 232.895 91.3295 232.895 89.542C232.895 87.7546 233.684 85.9572 234.665 85.524C235.654 85.087 236.463 86.2023 236.463 88.0185Z" fill="#F2F2F2"/>
<path d="M235.262 88.5304C235.262 89.1358 234.993 89.74 234.663 89.8796C234.333 90.0188 234.066 89.6431 234.066 89.0409C234.066 88.4388 234.333 87.8355 234.663 87.6931C234.993 87.5503 235.262 87.925 235.262 88.5304Z" fill="white"/>
<path d="M207.714 88.7972C207.73 88.7293 207.768 88.6687 207.822 88.6247C207.876 88.5807 207.943 88.5556 208.013 88.5533C208.082 88.551 208.151 88.5716 208.207 88.612C208.264 88.6523 208.306 88.7102 208.327 88.7769L209.027 90.9956L209.992 94.0561C210.016 94.1326 210.011 94.2154 209.978 94.2881C209.944 94.3609 209.885 94.4184 209.811 94.4492L207.984 95.2149L206.516 95.8306C206.461 95.8534 206.402 95.8606 206.343 95.8513C206.285 95.842 206.23 95.8166 206.186 95.778C206.141 95.7394 206.107 95.6889 206.089 95.6324C206.071 95.5759 206.069 95.5154 206.083 95.4578L206.953 91.9049L207.714 88.7972Z" fill="#E6E6E6"/>
<path d="M195.542 85.0867L198.332 82.4984C198.332 82.4984 204.645 78.1236 202.44 75.7184C200.234 73.3133 195.79 78.9218 195.79 78.9218L193.031 80.7395L195.542 85.0867Z" fill="#FBBEBE"/>
<path d="M158.666 86.2911L157.042 88.5407C157.042 88.5407 154.771 97.3249 166.261 97.7914C166.261 97.7914 180.936 104.948 184.568 100.464C188.201 95.9806 198.224 85.1955 198.224 85.1955L192.328 79.1672L180.312 91.801L168.655 85.9248C168.655 85.9248 162.651 82.5936 158.666 86.2911Z" fill="#2F2E41"/>
<path d="M151.018 127.975L135.805 184.362L137.721 184.748L153.701 127.975H151.018Z" fill="#E6E6E6"/>
<path d="M169.465 127.975L184.678 184.362L182.761 184.748L166.781 127.975H169.465Z" fill="#E6E6E6"/>
<path d="M159.07 126.818L161.622 184.456L163.837 184.556L160.987 126.047L159.07 126.818Z" fill="#E6E6E6"/>
<path d="M166.161 125.906C166.161 127.368 162.183 128.938 156.962 129.442C151.358 129.983 146.504 129.105 146.504 127.443C146.504 125.781 151.358 124.144 156.962 123.809C162.183 123.497 166.161 124.444 166.161 125.906Z" fill="#E6E6E6"/>
<path d="M171.721 116.021L175.554 118.72C175.554 118.72 192.037 130.674 190.504 135.302C188.971 139.929 180.538 158.439 180.538 158.439L169.805 154.968L182.071 135.302L175.554 129.132L172.105 120.648L171.721 116.021Z" fill="#2F2E41"/>
<path d="M156.771 109.08C156.771 109.08 149.104 121.034 153.704 124.505C158.304 127.975 171.337 141.472 171.337 141.472L174.02 147.642L183.603 178.877L195.486 172.707L184.753 148.413C184.753 148.413 183.603 139.544 179.77 134.531C175.937 129.518 174.403 122.191 174.403 122.191L175.553 118.72L168.69 107.672L156.771 109.08Z" fill="#2F2E41"/>
<path d="M177.617 156.229L170.727 154.12C170.727 154.12 163.287 153.811 163.671 156.511C164.054 159.21 170.187 176.948 172.104 175.792C174.02 174.635 172.487 169.236 172.487 169.236L177.617 156.229Z" fill="#2F2E41"/>
<path d="M162.329 71.4822L158.496 75.724L164.629 85.7501L167.312 78.0377L162.329 71.4822Z" fill="#E2ABAB"/>
<path d="M165.97 86.3284L159.162 74.9865L156.771 75.5312V79.3873L156.004 111.779L168.653 109.851C168.653 109.851 169.42 89.0278 165.97 86.3284Z" fill="#1DBF73"/>
<path d="M162.517 85.9428L156.768 75.5311L151.784 77.8448L142.968 114.093L137.602 124.505C137.602 124.505 155.234 133.374 159.451 124.505C163.667 115.635 164.051 95.9689 164.051 95.9689L162.517 85.9428Z" fill="#2F2E41"/>
<path d="M154.086 79.3873L151.787 77.8448C151.787 77.8448 142.97 75.9168 142.97 87.4853C142.97 87.4853 136.454 102.524 141.054 105.995C145.653 109.465 156.77 119.106 156.77 119.106L162.519 112.936L149.487 101.367L154.853 89.4134C154.853 89.4134 157.92 83.2435 154.086 79.3873Z" fill="#2F2E41"/>
<path d="M156.77 116.407L159.453 119.106C159.453 119.106 164.053 125.276 166.353 122.962C168.652 120.648 162.903 116.407 162.903 116.407L160.986 113.707L156.77 116.407Z" fill="#FBBEBE"/>
<path d="M165.526 82.8289L172.104 99.0538C172.104 99.0538 174.787 107.152 174.787 110.237V118.72L167.504 109.08C167.504 109.08 163.549 83.9569 165.526 82.8289Z" fill="#2F2E41"/>
<path d="M186.47 175.801C186.47 175.801 184.571 183.323 187.063 183.96C189.555 184.596 210.466 185.135 210.48 181.58C210.493 178.025 196.908 175.088 196.908 175.088L191.889 171.848L186.47 175.801Z" fill="#2F2E41"/>
<path d="M167.122 78.6161C170.933 78.6161 174.022 75.5084 174.022 71.675C174.022 67.8415 170.933 64.7339 167.122 64.7339C163.312 64.7339 160.223 67.8415 160.223 71.675C160.223 75.5084 163.312 78.6161 167.122 78.6161Z" fill="#FBBEBE"/>
<path d="M174.476 70.4287C174.476 70.4287 175.824 64.5535 174.476 63.1977V64.1015C174.476 64.1015 173.577 60.938 171.78 61.8418C171.78 61.8418 169.534 60.0341 169.085 60.938C166.442 58.5338 154.721 60.7877 160.41 73.4103C160.41 73.4103 161.448 69.5248 161.448 70.8806C161.448 70.8806 164.143 68.169 164.592 67.2651C165.042 66.3612 172.679 72.2364 174.476 70.4287Z" fill="#2F2E41"/>
</svg>
