<svg width="306" height="185" viewBox="0 0 306 185" fill="none" xmlns="http://www.w3.org/2000/svg">
<path d="M240.354 102.891C240.318 105.651 240.191 108.744 239.906 112.003L247.901 102.088L247.957 102.243C247.302 100.005 246.334 97.8705 245.081 95.9016L245.144 96.0475L240.354 102.891Z" fill="#57B894"/>
<path d="M240.359 102.407L244.999 95.7777C243.665 93.7785 242.067 92.2307 240.242 91.2865C240.148 91.2374 240.052 91.1916 239.957 91.1462C240.028 91.8935 240.415 96.2822 240.359 102.407Z" fill="#57B894"/>
<path d="M248.901 121.65C249.097 120.494 249.25 119.341 249.358 118.19L237.303 127.608L237.286 127.525C237.105 128.204 236.916 128.872 236.719 129.528L248.872 121.467L248.901 121.65Z" fill="#57B894"/>
<path d="M238.676 121.266L249.465 111.32L249.508 111.492C249.369 108.416 248.864 105.368 248.005 102.41L239.858 112.514C239.577 115.567 239.183 118.484 238.676 121.266Z" fill="#57B894"/>
<path d="M239.655 112.343L225.222 98.0768L225.285 97.9025C224.114 99.7606 223.135 101.732 222.363 103.785L238.787 119.279C239.178 116.857 239.458 114.518 239.655 112.343Z" fill="#57B894"/>
<path d="M238.408 121.446C238.518 120.855 238.622 120.267 238.719 119.683L222.234 104.133L222.295 103.957C222.022 104.681 221.766 105.428 221.527 106.198L221.587 106.022L238.408 121.446Z" fill="#57B894"/>
<path d="M237.387 127.13L249.342 117.79L249.377 117.968C249.566 115.882 249.613 113.786 249.518 111.694L238.582 121.775C238.233 123.628 237.835 125.413 237.387 127.13Z" fill="#57B894"/>
<path d="M220.387 120.813L233.905 136.4C234.822 134.356 235.615 132.258 236.28 130.119L220.011 114.979C219.975 116.991 220.076 119.003 220.311 121.001L220.387 120.813Z" fill="#57B894"/>
<path d="M239.727 91.1457L239.836 91.0891C236.999 89.7847 234.028 90.1133 231.258 91.7607L240.137 102.408C240.196 95.782 239.733 91.2113 239.727 91.1457Z" fill="#57B894"/>
<path d="M236.374 130.643C235.762 132.568 235.045 134.459 234.227 136.307L246.491 129.073L246.514 129.253C247.374 127.598 248.019 125.841 248.434 124.024C248.594 123.31 248.737 122.594 248.861 121.878L236.563 130.035C236.5 130.238 236.438 130.442 236.374 130.643Z" fill="#57B894"/>
<path d="M240.133 102.902L231.05 92.0101L231.12 91.8435C229.041 93.1158 227.081 95.1325 225.379 97.7588L239.694 111.908C239.974 108.687 240.098 105.63 240.133 102.902Z" fill="#57B894"/>
<path d="M236.393 129.743C237.183 127.146 237.831 124.508 238.335 121.841L221.473 106.379C221.153 107.423 220.868 108.507 220.615 109.631C220.267 111.241 220.068 112.879 220.02 114.525L236.381 129.751L236.393 129.743Z" fill="#57B894"/>
<path d="M253.762 146.473C251.964 148.576 249.883 150.878 247.574 153.207L260.089 150.642L260.033 150.797C260.964 148.659 261.587 146.4 261.884 144.089L261.84 144.241L253.762 146.473Z" fill="#57B894"/>
<path d="M261.119 137.465C261.078 137.367 261.034 137.271 260.989 137.176C260.565 137.796 258.049 141.422 254.078 146.103L261.903 143.942C262.157 141.556 261.919 139.35 261.119 137.465Z" fill="#57B894"/>
<path d="M235.604 163.499C235.029 163.908 234.455 164.302 233.883 164.682L248.412 166.184L248.317 166.343C249.209 165.577 250.066 164.786 250.888 163.968L235.564 163.574L235.604 163.499Z" fill="#57B894"/>
<path d="M240.688 159.562L255.376 158.746L255.298 158.906C257.163 156.449 258.729 153.781 259.964 150.958L247.21 153.571C245.036 155.744 242.862 157.741 240.688 159.562Z" fill="#57B894"/>
<path d="M235.938 163.26L251.134 163.651L251.047 163.811C252.53 162.324 253.91 160.739 255.179 159.067L240.292 159.894C238.835 161.1 237.384 162.222 235.938 163.26Z" fill="#57B894"/>
<path d="M217.849 171.771C217.95 171.656 218.052 171.54 218.158 171.419C221.214 170.75 224.178 169.718 226.987 168.345L226.768 157.503C226.874 157.22 226.976 156.934 227.075 156.647L227.308 168.189C229.325 167.196 231.281 166.083 233.165 164.857L230.588 144.785C230.693 144.723 230.799 144.659 230.908 144.594L233.481 164.64L233.495 164.642C235.769 163.142 237.96 161.522 240.058 159.788L237.376 140.045C237.479 139.961 237.583 139.875 237.687 139.788L240.369 159.531C240.834 159.146 241.29 158.759 241.739 158.37L239.31 138.369C239.413 138.274 239.516 138.179 239.618 138.083L242.049 158.101C243.903 156.484 245.618 154.859 247.165 153.309L245.197 133.165L245.357 133.071C244.803 133.249 244.242 133.452 243.676 133.674C244.69 132.378 245.588 130.999 246.363 129.55L233.981 136.853C233.198 138.567 232.301 140.229 231.298 141.826C231.078 142.057 230.859 142.292 230.644 142.533L230.675 142.778C230.579 142.921 230.482 143.062 230.385 143.202L230.343 142.876C230.22 143.017 230.098 143.161 229.977 143.305C231.442 141.234 232.707 139.031 233.757 136.725L220.338 121.251C220.506 122.689 220.732 124.133 220.998 125.562C219.731 123.76 218.226 122.137 216.523 120.735L216.628 120.854L214.199 128.835C215.023 131.471 215.864 134.452 216.605 137.638L221.064 125.915C221.098 126.093 221.133 126.27 221.168 126.446L216.72 138.139C217.401 141.129 217.933 144.024 218.315 146.826L223.893 136.887C223.936 137.023 223.979 137.158 224.022 137.292L218.384 147.338C218.628 149.208 218.804 151.028 218.911 152.798L225.839 142.525C225.886 142.651 225.933 142.776 225.979 142.897L218.978 153.28L218.937 153.206C218.975 153.908 219.003 154.601 219.019 155.285L226.928 145.324C226.981 145.453 227.03 145.573 227.075 145.682L219.029 155.815C219.032 156.027 219.037 156.241 219.038 156.451C219.055 158.471 218.961 160.489 218.756 162.499L219.525 161.63C219.389 161.958 219.256 162.281 219.128 162.6L218.691 163.094C218.656 163.393 218.618 163.69 218.578 163.984C218.429 164.367 218.286 164.74 218.148 165.103C218.26 164.42 218.356 163.732 218.437 163.041L200.867 152.451C205.928 163.415 214.851 173.609 215.421 174.256C215.805 173.431 216.151 172.588 216.46 171.727C216.565 171.711 216.67 171.694 216.774 171.676C216.738 171.78 216.703 171.884 216.666 171.986C216.611 171.995 216.556 172.006 216.501 172.014C216.547 172.024 216.594 172.034 216.644 172.045C216.424 172.649 216.19 173.238 215.94 173.814C216.292 173.461 216.819 172.916 217.456 172.21C221.492 172.99 232.32 174.529 241.297 170.816L227.077 168.586C224.146 170.025 221.046 171.094 217.849 171.771ZM226.687 153.528L227.004 153.17L227.015 153.679L226.697 154.037L226.687 153.528Z" fill="#57B894"/>
<path d="M260.812 137.029L260.932 137.055C259.583 134.25 257.084 132.619 253.895 132.13L253.905 145.964C258.2 140.898 260.775 137.084 260.812 137.029Z" fill="#57B894"/>
<path d="M232.903 165.322C231.197 166.417 229.433 167.419 227.617 168.323L241.702 170.532L241.604 170.685C243.328 169.956 244.951 169.012 246.436 167.876C247.018 167.427 247.586 166.966 248.141 166.494L233.439 164.974C233.26 165.09 233.082 165.208 232.903 165.322Z" fill="#57B894"/>
<path d="M247.472 152.999C249.753 150.695 251.808 148.42 253.585 146.341L253.574 132.19L253.734 132.105C251.318 131.767 248.514 132.076 245.52 133.019L247.472 152.999Z" fill="#57B894"/>
<path d="M216.406 120.642C214.516 119.151 212.516 118.17 210.487 117.833C210.381 117.815 210.277 117.801 210.172 117.787C210.472 118.476 212.203 122.531 214.053 128.373L216.406 120.642Z" fill="#57B894"/>
<path d="M216.467 138.039L198.308 128.909L198.314 128.724C197.778 130.851 197.459 133.026 197.363 135.217L217.798 144.902C217.417 142.479 216.956 140.169 216.467 138.039Z" fill="#57B894"/>
<path d="M217.861 145.307L197.351 135.586L197.355 135.4C197.32 136.172 197.309 136.961 197.321 137.767L197.323 137.581L218.114 147.079C218.035 146.483 217.951 145.892 217.861 145.307Z" fill="#57B894"/>
<path d="M218.782 155.983L198.605 146.586C199.197 148.51 199.917 150.393 200.762 152.221L200.776 152.019L218.476 162.687C218.713 160.46 218.815 158.222 218.782 155.983Z" fill="#57B894"/>
<path d="M209.953 117.858L210.04 117.77C206.935 117.402 204.212 118.628 202.09 121.046L213.843 128.443C211.84 122.123 209.98 117.918 209.953 117.858Z" fill="#57B894"/>
<path d="M213.989 128.914L201.966 121.348L201.981 121.168C200.4 123.017 199.162 125.538 198.359 128.558L216.371 137.614C215.635 134.464 214.804 131.519 213.989 128.914Z" fill="#57B894"/>
<path d="M218.779 155.59C218.722 152.877 218.519 150.169 218.17 147.478L197.328 137.957C197.349 139.048 197.414 140.167 197.523 141.313C197.693 142.951 198.012 144.571 198.478 146.151L218.77 155.601L218.779 155.59Z" fill="#57B894"/>
<path d="M201.792 107.529L141.26 99.9392C138.517 77.2396 142.661 55.0786 149.738 33.0403L210.27 40.6299C201.136 62.2505 198.455 84.5657 201.792 107.529Z" fill="#F2F2F2"/>
<path d="M195.187 45.6894L158.195 41.0514L157.694 45.0045L194.686 49.6425L195.187 45.6894Z" fill="#1DBF73"/>
<path opacity="0.3" d="M199.782 55.9964L149.645 49.7101L149.394 51.6867L199.532 57.9729L199.782 55.9964Z" fill="#1DBF73"/>
<path opacity="0.3" d="M198.974 62.3822L148.836 56.0959L148.585 58.0725L198.723 64.3587L198.974 62.3822Z" fill="#1DBF73"/>
<path opacity="0.3" d="M198.165 68.768L148.027 62.4817L147.777 64.4583L197.915 70.7445L198.165 68.768Z" fill="#1DBF73"/>
<path opacity="0.3" d="M197.353 75.1538L147.215 68.8675L146.964 70.844L197.102 77.1303L197.353 75.1538Z" fill="#1DBF73"/>
<path opacity="0.3" d="M196.548 81.5396L146.41 75.2533L146.16 77.2299L196.297 83.5161L196.548 81.5396Z" fill="#1DBF73"/>
<path opacity="0.3" d="M195.736 87.9254L145.598 81.6391L145.347 83.6157L195.485 89.9019L195.736 87.9254Z" fill="#1DBF73"/>
<path opacity="0.3" d="M194.927 94.3112L144.789 88.0249L144.539 90.0015L194.676 96.2878L194.927 94.3112Z" fill="#1DBF73"/>
<path d="M173.128 85.1655L116.496 62.5879C119.617 39.9365 129.264 19.54 141.717 0L198.349 22.5776C184.012 41.1957 175.741 62.1098 173.128 85.1655Z" fill="#E6E6E6"/>
<path d="M182.468 23.6763L147.859 9.87889L146.369 13.5773L180.977 27.3747L182.468 23.6763Z" fill="#1DBF73"/>
<path opacity="0.3" d="M184.294 34.8043L137.387 16.1037L136.642 17.9529L183.549 36.6535L184.294 34.8043Z" fill="#1DBF73"/>
<path opacity="0.3" d="M181.884 40.7786L134.977 22.078L134.231 23.9271L181.138 42.6278L181.884 40.7786Z" fill="#1DBF73"/>
<path opacity="0.3" d="M179.477 46.7529L132.57 28.0523L131.825 29.9014L178.732 48.6021L179.477 46.7529Z" fill="#1DBF73"/>
<path opacity="0.3" d="M177.071 52.7272L130.164 34.0266L129.419 35.8758L176.326 54.5764L177.071 52.7272Z" fill="#1DBF73"/>
<path opacity="0.3" d="M174.665 58.7015L127.758 40.0009L127.013 41.8501L173.92 60.5507L174.665 58.7015Z" fill="#1DBF73"/>
<path opacity="0.3" d="M172.255 64.6758L125.348 45.9752L124.602 47.8244L171.51 66.525L172.255 64.6758Z" fill="#1DBF73"/>
<path opacity="0.3" d="M169.848 70.6501L122.941 51.9494L122.196 53.7986L169.103 72.4993L169.848 70.6501Z" fill="#1DBF73"/>
<path d="M159.119 90.6031H98.1077C92.5316 68.423 93.8576 45.9205 98.1077 23.1749H159.119C152.775 45.762 152.921 68.2355 159.119 90.6031Z" fill="#F2F2F2"/>
<path d="M144.792 30.071H107.508V34.0553H144.792V30.071Z" fill="#1DBF73"/>
<path opacity="0.3" d="M150.648 39.7254H100.113V41.7176H150.648V39.7254Z" fill="#1DBF73"/>
<path opacity="0.3" d="M150.648 46.1618H100.113V48.154H150.648V46.1618Z" fill="#1DBF73"/>
<path opacity="0.3" d="M150.648 52.5981H100.113V54.5903H150.648V52.5981Z" fill="#1DBF73"/>
<path opacity="0.3" d="M150.648 59.0344H100.113V61.0266H150.648V59.0344Z" fill="#1DBF73"/>
<path opacity="0.3" d="M150.648 65.4708H100.113V67.463H150.648V65.4708Z" fill="#1DBF73"/>
<path opacity="0.3" d="M150.648 71.9071H100.113V73.8993H150.648V71.9071Z" fill="#1DBF73"/>
<path opacity="0.3" d="M150.648 78.3434H100.113V80.3356H150.648V78.3434Z" fill="#1DBF73"/>
<path d="M117.995 77.1421L96.9762 60.8885C96.7659 60.5247 96.4629 60.2225 96.0977 60.0123C95.7325 59.8022 95.3181 59.6916 94.8962 59.6916H83.5517C82.9154 59.6916 82.3051 59.943 81.8551 60.3906C81.4051 60.8381 81.1523 61.4452 81.1523 62.0781V161.671C81.1523 163.724 81.9723 165.693 83.4318 167.145C84.8914 168.596 86.8709 169.412 88.935 169.412H205.391C206.413 169.412 207.425 169.212 208.369 168.823C209.313 168.434 210.171 167.864 210.894 167.145C211.616 166.426 212.19 165.573 212.581 164.633C212.972 163.694 213.173 162.688 213.173 161.671V84.1782C213.173 82.3121 212.428 80.5225 211.101 79.203C209.775 77.8834 207.975 77.1421 206.099 77.1421H117.995Z" fill="#3F3D56"/>
<path d="M209.217 100.238H188.094V107.592H209.217V100.238Z" fill="#1DBF73"/>
<path d="M44 184.543C44 184.543 140.609 129.588 257.27 184.543H44Z" fill="#F2F2F2"/>
<path d="M64.6917 58.4308C64.6917 58.4308 65.7286 63.8968 65.0027 64.3094C64.4165 64.6759 63.8616 65.0898 63.3438 65.547L65.2101 68.1253L69.6687 69.0535L73.9198 65.1345V61.2154C73.9198 61.2154 72.6756 59.2558 72.883 58.0182C73.0903 56.7806 64.6917 58.4308 64.6917 58.4308Z" fill="#FBBEBE"/>
<path opacity="0.1" d="M64.6917 58.4308C64.6917 58.4308 65.7286 63.8968 65.0027 64.3094C64.4165 64.6759 63.8616 65.0898 63.3438 65.547L65.2101 68.1253L69.6687 69.0535L73.9198 65.1345V61.2154C73.9198 61.2154 72.6756 59.2558 72.883 58.0182C73.0903 56.7806 64.6917 58.4308 64.6917 58.4308Z" fill="black"/>
<path d="M57.5355 67.8159L56.9133 68.1253C56.9133 68.1253 55.5654 68.641 54.9433 73.0757C54.3212 77.5104 52.8695 88.1332 53.2843 88.4426C53.699 88.752 53.4917 90.8146 53.4917 90.8146L56.6023 74.6227L57.5355 67.8159Z" fill="#2F2E41"/>
<path d="M64.909 42.6456C64.8141 42.8425 64.7809 43.0724 64.6919 43.2729C64.2878 44.1837 63.1373 43.9799 62.3076 44.3244C61.6049 44.6162 61.0804 45.4173 61.0254 46.283C61.0021 46.6506 61.0562 47.0212 61.023 47.3877C60.9617 48.0648 60.6107 48.6609 60.4858 49.326C60.1824 50.9416 60.8904 53.4931 61.6898 52.6212C61.9419 52.3462 62.2575 52.164 62.5298 51.9165C63.237 51.2737 63.5971 50.2516 64.1716 49.4495C64.2442 49.3318 64.3443 49.2332 64.4632 49.1619C64.883 48.9545 65.2566 49.5098 65.5885 49.8738C65.7573 50.0572 65.9636 50.2028 66.1934 50.3008C66.4232 50.3988 66.6714 50.4471 66.9214 50.4423C67.1714 50.4376 67.4176 50.38 67.6434 50.2733C67.8693 50.1666 68.0698 50.0133 68.2315 49.8236C68.3328 49.677 68.4588 49.549 68.6039 49.4452C68.7658 49.371 68.9481 49.3532 69.1214 49.3946C69.9396 49.5379 70.6767 49.9744 71.1932 50.6216C71.4703 50.9589 71.702 51.3558 72.0341 51.6173C72.3662 51.8788 72.8508 51.9649 73.1499 51.6541C73.7518 52.0774 73.9764 52.976 73.978 53.7944C73.9795 54.6127 73.811 55.4257 73.8521 56.2427C73.8932 57.0596 74.2157 57.9413 74.8702 58.241C74.9732 57.4971 75.3614 56.8216 75.9535 56.3558C76.3993 56.0258 76.9411 55.8623 77.3181 55.4315C78.0728 54.5692 77.8336 53.1348 77.8626 51.9046C77.8984 50.3872 78.4271 48.9366 78.5205 47.4226C78.5671 46.6659 78.4886 45.8547 78.0882 45.256C77.7851 44.857 77.401 44.526 76.9608 44.2845L73.4019 42.0135C73.2438 41.8973 73.0647 41.8128 72.8742 41.7645C72.3503 41.671 71.8975 42.1598 71.4008 42.3751C70.9866 42.5212 70.545 42.5745 70.1076 42.5311C68.726 42.4939 68.3371 42.7608 67.4085 41.8654C67.3362 41.7928 67.2478 41.7381 67.1503 41.7058C67.0529 41.6734 66.9492 41.6644 66.8475 41.6793C66.2921 41.7669 65.2128 42.0149 64.909 42.6456Z" fill="#2F2E41"/>
<path d="M66.8684 167.236L69.0457 171.98L64.7945 173.424L62.6172 172.29L63.1357 167.236H66.8684Z" fill="#FBBEBE"/>
<path d="M64.8999 171.259C64.8999 171.259 61.4782 169.196 60.8561 169.918C60.234 170.64 55.257 175.9 55.257 175.9C55.257 175.9 47.5842 180.025 53.4943 180.644C59.4045 181.262 69.0474 177.034 69.0474 177.034C69.0474 177.034 69.5658 171.465 69.1511 171.362C68.7363 171.259 66.9736 172.29 66.1441 171.98C65.686 171.823 65.2634 171.578 64.8999 171.259Z" fill="#2F2E41"/>
<path d="M72.4662 172.29V176.518L66.8672 175.281L68.1113 170.949L72.4662 172.29Z" fill="#FBBEBE"/>
<path d="M66.7656 173.734C66.7656 173.734 72.4684 172.806 72.9868 175.59C73.5053 178.375 74.8532 182.5 73.5053 183.531C72.1573 184.563 65.2103 185.903 65.1066 184.15C65.0029 182.397 65.8324 178.994 65.8324 178.994C65.8324 178.994 66.3509 176.312 66.0398 175.59C65.7287 174.868 66.7656 173.734 66.7656 173.734Z" fill="#2F2E41"/>
<path d="M55.3748 104.092C55.3748 104.092 50.6937 133.615 54.5302 148.054C58.3666 162.492 61.0624 171.052 61.0624 171.052C61.0624 171.052 67.6984 169.196 67.6984 167.958C67.6984 166.721 65.1062 148.363 64.4841 146.61C63.862 144.856 62.8251 144.238 63.7583 142.794C64.6915 141.35 66.2468 132.068 66.2468 132.068C66.2468 132.068 69.6685 147.435 69.8758 147.847C70.0832 148.26 67.6984 171.877 67.6984 171.877C67.6984 171.877 74.5429 176.818 74.9565 173.115C75.0602 172.187 79.6224 139.287 79.6224 138.875C79.6224 138.462 81.4888 106.903 78.4819 105.356C75.4749 103.809 55.3748 104.092 55.3748 104.092Z" fill="#2F2E41"/>
<path d="M68.7343 60.4935C72.6283 60.4935 75.785 57.3536 75.785 53.4804C75.785 49.6072 72.6283 46.4673 68.7343 46.4673C64.8403 46.4673 61.6836 49.6072 61.6836 53.4804C61.6836 57.3536 64.8403 60.4935 68.7343 60.4935Z" fill="#FBBEBE"/>
<path d="M67.18 67.4034V66.6815L65.1063 63.2781C65.1063 63.2781 63.0326 63.4843 62.7215 64.4125C62.4104 65.3407 58.8851 72.7663 58.8851 72.7663L55.1523 106.078C55.1523 106.078 65.4174 108.554 66.9727 106.8C68.528 105.047 74.4381 66.8877 74.4381 66.8877L75.2676 62.2467C75.2676 62.2467 73.8433 60.1841 73.5186 60.4935C73.1939 60.8029 67.8022 66.7846 67.8022 66.7846L67.6985 67.7128L67.18 67.4034Z" fill="#1DBF73"/>
<path d="M65.0561 62.6077C65.0561 62.6077 63.1379 62.1436 62.5157 63.278C61.8936 64.4125 61.8936 64.825 61.2715 65.2376C60.6494 65.6501 57.0203 67.5065 56.813 68.2284C56.6056 68.9504 52.147 91.7428 52.147 91.7428C52.147 91.7428 49.9696 98.5496 51.0065 103.191C52.0434 107.832 51.3175 108.76 53.495 109.172C55.6724 109.585 55.9835 109.585 55.9835 108.966C55.9835 108.347 58.783 87.4112 60.7531 85.9674C62.7231 84.5235 62.2047 68.7441 62.2047 68.7441C62.2047 68.7441 65.0042 65.3407 65.0042 64.8251C65.0042 64.3094 65.4708 62.569 65.0561 62.6077Z" fill="#2F2E41"/>
<path d="M70.9128 66.3721C71.2021 66.42 75.164 61.3185 75.475 61.5248C75.7861 61.7311 77.3414 64.4125 77.5488 64.4125C77.7561 64.4125 86.5696 66.5783 87.2954 70.6005C88.0212 74.6227 82.2147 87.4112 82.2147 87.4112C82.2147 87.4112 79.7262 94.7337 80.2446 97.9308C80.5964 100.366 80.5262 102.842 80.0373 105.253C79.8299 106.078 79.1041 107.007 79.3115 107.419C79.5188 107.832 74.7492 106.903 72.7792 108.038C70.8091 109.172 61.9957 109.997 62.5141 108.76C63.0326 107.522 63.3437 102.675 64.7953 97.5183C66.2469 92.3616 69.9796 80.1919 69.3575 79.3668C68.7354 78.5418 70.2907 66.2689 70.9128 66.3721Z" fill="#2F2E41"/>
<path d="M86.0514 69.3629L87.3993 70.6005C87.3993 70.6005 88.9546 73.282 88.7472 74.5196C88.5399 75.7572 93.1021 94.4243 91.2357 95.0431C89.3693 95.6619 84.9108 98.7559 84.3924 99.581C83.8739 100.406 82.6297 101.85 81.8002 102.262C80.9707 102.675 80.1412 103.397 79.6228 102.984C79.1043 102.572 77.9638 94.1149 78.7933 93.8055C79.6228 93.4961 80.4523 92.5679 81.2818 92.5679C82.1113 92.5679 82.6297 91.7428 82.6297 91.0209C82.6297 90.299 82.0076 85.9674 82.0076 85.9674L80.6596 75.7572L86.0514 69.3629Z" fill="#2F2E41"/>
<path d="M66.1541 43.6719C66.0702 43.8207 66.0408 43.9945 65.9621 44.1461C65.6048 44.8346 64.5876 44.6805 63.8539 44.941C63.5439 45.0564 63.2729 45.2566 63.0723 45.5186C62.8717 45.7805 62.7497 46.0936 62.7202 46.4216C62.6996 46.6994 62.7475 46.9796 62.7181 47.2567C62.6639 47.7685 62.3536 48.2192 62.2431 48.722C61.9748 49.9433 62.6009 51.8721 63.3077 51.213C63.5306 51.0051 63.8096 50.8673 64.0504 50.6802C64.6757 50.1943 64.9942 49.4217 65.5021 48.8153C65.5696 48.7236 65.658 48.6491 65.76 48.5979C66.1311 48.4411 66.4615 48.8609 66.7549 49.136C67.0796 49.4197 67.4988 49.5729 67.9308 49.5659C68.3628 49.5589 68.7768 49.3921 69.0919 49.0981C69.1845 48.9847 69.2958 48.888 69.4212 48.812C69.5668 48.7558 69.7257 48.7425 69.8787 48.7738C70.5768 48.8694 71.2222 49.1962 71.7107 49.7014C71.931 49.9777 72.1803 50.23 72.4542 50.454C72.7478 50.6517 73.1763 50.7169 73.4407 50.4819C73.973 50.8019 74.1715 51.4812 74.1729 52.0998C74.1743 52.7185 74.0253 53.3331 74.0617 53.9506C74.098 54.5682 74.3831 55.2347 74.9619 55.4613C75.015 55.1712 75.1275 54.8951 75.2922 54.6499C75.457 54.4048 75.6706 54.1959 75.9197 54.0362C76.3139 53.7867 76.7929 53.6631 77.1263 53.3375C77.7936 52.6856 77.5822 51.6013 77.6078 50.6713C77.6394 49.5242 78.1069 48.4276 78.1895 47.2831C78.2307 46.7111 78.1612 46.0978 77.8072 45.6452C77.5285 45.3357 77.1893 45.0858 76.8104 44.9109L73.6636 43.194C73.5202 43.1048 73.3624 43.0411 73.197 43.0058C72.7338 42.9351 72.3334 43.3046 71.8942 43.4674C71.524 43.5783 71.136 43.6183 70.7508 43.5854C69.5292 43.5572 69.1853 43.759 68.3642 43.0821C68.2958 43.0258 68.2164 42.9843 68.131 42.96C68.0456 42.9358 67.9561 42.9295 67.8682 42.9414C67.3771 43.0076 66.4228 43.1951 66.1541 43.6719Z" fill="#2F2E41"/>
</svg>
