<svg width="308" height="185" viewBox="0 0 308 185" fill="none" xmlns="http://www.w3.org/2000/svg">
<g clip-path="url(#clip0_598_0)">
<path d="M48.6863 88.3945C48.6863 88.3945 46.288 117.148 45.773 123.31C45.4199 127.172 44.5541 130.971 43.1983 134.606C43.1983 134.606 42.1684 136.66 42.1684 138.713V164.9C42.1684 164.9 40.1087 164.9 40.6236 166.953C41.1385 169.007 41.6535 172.601 41.6535 172.601H49.3776C49.3776 172.601 48.8627 171.061 50.4075 170.548C51.9523 170.034 50.4075 165.927 50.4075 165.927L58.6465 135.119L71.0051 109.447C71.0051 109.447 78.2143 132.552 79.7591 135.119C79.7591 135.119 85.4235 163.873 86.4534 166.44C87.4833 169.007 87.9982 169.007 87.4833 170.034C86.9683 171.061 86.9683 172.088 87.4833 172.601C87.9982 173.115 97.7821 172.601 97.7821 172.601L95.2074 136.146L90.5729 92.5026L66.8856 85.3143L48.6863 88.3945Z" fill="#2F2E41"/>
<path d="M47.3168 168.494C47.3168 168.494 44.7421 159.252 40.6226 166.44C36.503 173.628 36.503 176.196 36.503 176.196C36.503 176.196 29.8088 185.951 39.0777 184.924C48.3467 183.897 46.2869 179.276 46.2869 179.276C46.2869 179.276 49.8915 177.222 49.8915 175.682C49.8915 174.142 47.3168 168.494 47.3168 168.494Z" fill="#2F2E41"/>
<path d="M89.0274 167.467C89.0274 167.467 91.6021 158.225 95.7216 165.413C99.8412 172.601 99.8412 175.169 99.8412 175.169C99.8412 175.169 106.535 184.924 97.2665 183.897C87.9975 182.87 90.0573 178.249 90.0573 178.249C90.0573 178.249 86.4527 176.196 86.4527 174.655C86.4527 173.115 89.0274 167.467 89.0274 167.467Z" fill="#2F2E41"/>
<path d="M64.8254 19.0787C64.8254 19.0787 65.8553 25.7536 62.7657 27.294C59.676 28.8344 69.4599 34.4824 72.0346 34.4824C74.6093 34.4824 79.2438 29.3478 79.2438 29.3478C79.2438 29.3478 76.6691 21.646 77.184 20.1056L64.8254 19.0787Z" fill="#E2ABAB"/>
<path d="M70.4895 24.2133C76.4618 24.2133 81.3033 19.3858 81.3033 13.4307C81.3033 7.47572 76.4618 2.64822 70.4895 2.64822C64.5173 2.64822 59.6758 7.47572 59.6758 13.4307C59.6758 19.3858 64.5173 24.2133 70.4895 24.2133Z" fill="#FBBEBE"/>
<path d="M91.6012 35.5093L78.7281 27.7324C78.7281 27.7324 71.4036 36.0227 63.4795 26.7805L49.8909 30.3747L51.9507 65.2896C51.9507 65.2896 48.8611 79.1528 49.8909 81.7201C50.9208 84.2874 47.3162 85.3143 48.3461 85.8277C49.376 86.3412 48.3461 89.9354 48.3461 89.9354C48.3461 89.9354 68.4288 100.204 90.5713 92.5026L88.5115 85.8277C88.7919 84.9552 88.8444 84.0258 88.6642 83.1273C88.484 82.2289 88.077 81.3911 87.4816 80.6932C87.4816 80.6932 89.5414 77.6125 86.9667 75.0452C86.9667 75.0452 87.9966 70.4241 85.4219 68.3703L84.9069 61.1819L86.4518 57.5878L91.6012 35.5093Z" fill="#CFCCE0"/>
<path d="M64.954 8.42412C64.954 8.42412 63.6648 11.2061 68.8217 10.0933C68.8217 10.0933 70.7555 11.2061 70.7555 9.5369C70.7555 9.5369 73.334 12.3189 73.9786 10.6497C74.6232 8.98051 75.9124 11.2061 75.9124 11.2061L77.2016 8.42412L78.4909 10.0933H83.0031C83.0031 10.0933 84.2923 -1.03456 68.8217 0.0782233C53.351 1.19101 60.9618 18.822 60.9618 18.822C60.9618 18.822 61.0863 15.6572 62.3756 17.3264C63.6648 18.9956 64.954 8.42412 64.954 8.42412Z" fill="#2F2E41"/>
<path d="M96.2352 56.0474L96.7502 66.8299C96.7502 66.8299 98.8099 86.8546 94.6904 95.5833V100.204C94.6904 100.204 93.6605 112.014 88.5111 111.5C83.3617 110.987 90.056 94.5564 90.056 94.5564L89.0261 71.9645L87.9962 59.1281L96.2352 56.0474Z" fill="#FBBEBE"/>
<path d="M85.9382 36.0227L91.075 35.1906C94.7753 38.7356 97.296 43.3272 98.2968 48.3456C99.8416 56.5609 100.357 58.1012 100.357 58.1012L87.998 61.1819L81.3038 48.3456L85.9382 36.0227Z" fill="#CFCCE0"/>
<path d="M145.083 30.163H63.8204V70.4139H145.083V30.163Z" fill="white"/>
<path d="M72.6922 32.5835C70.6045 31.3317 68.0872 31.4273 67.1302 31.5229C67.4946 32.4101 68.5881 34.673 70.6758 35.9255C72.7686 37.1805 75.2826 37.082 76.2381 36.987C75.8739 36.1002 74.7802 33.8363 72.6922 32.5835Z" fill="#1DBF73"/>
<path d="M82.505 57.4243H69.4566C69.0708 57.4239 68.6887 57.4993 68.3321 57.6462C67.9755 57.7932 67.6515 58.0087 67.3785 58.2806C67.1056 58.5525 66.889 58.8754 66.7413 59.2307C66.5936 59.5861 66.5175 59.967 66.5175 60.3517C66.5175 60.7364 66.5936 61.1174 66.7413 61.4727C66.889 61.8281 67.1056 62.151 67.3785 62.4229C67.6515 62.6947 67.9755 62.9103 68.3321 63.0572C68.6887 63.2042 69.0708 63.2796 69.4566 63.2792H82.505C82.8908 63.2796 83.2729 63.2042 83.6295 63.0572C83.9861 62.9103 84.3101 62.6947 84.5831 62.4229C84.856 62.151 85.0726 61.8281 85.2203 61.4727C85.3681 61.1174 85.4441 60.7364 85.4441 60.3517C85.4441 59.967 85.3681 59.5861 85.2203 59.2307C85.0726 58.8754 84.856 58.5525 84.5831 58.2806C84.3101 58.0087 83.9861 57.7932 83.6295 57.6462C83.2729 57.4993 82.8908 57.4239 82.505 57.4243Z" fill="#1DBF73"/>
<path d="M141.591 26.5238H68.4322C67.5812 26.5238 66.7385 26.691 65.9522 27.0157C65.166 27.3404 64.4515 27.8164 63.8498 28.4164C63.248 29.0165 62.7706 29.7288 62.445 30.5128C62.1193 31.2968 61.9517 32.1371 61.9517 32.9856V68.527C61.9517 70.2408 62.6344 71.8844 63.8498 73.0962C65.0651 74.308 66.7135 74.9888 68.4322 74.9888H141.591C143.309 74.9888 144.958 74.308 146.173 73.0962C147.389 71.8844 148.071 70.2408 148.071 68.527V32.9856C148.071 32.1371 147.904 31.2968 147.578 30.5128C147.252 29.7288 146.775 29.0165 146.173 28.4164C145.571 27.8164 144.857 27.3404 144.071 27.0157C143.285 26.691 142.442 26.5238 141.591 26.5238ZM66.6221 30.9318C66.7666 30.9057 70.1923 30.3244 73.029 32.0264C75.8655 33.728 76.9553 37.0185 77.0002 37.1576L77.1149 37.5124L76.7468 37.5775C76.2216 37.6593 75.6907 37.6982 75.1592 37.6938C73.4732 37.7259 71.8092 37.3078 70.3398 36.4826C67.5033 34.7813 66.4136 31.4908 66.3687 31.3517L66.254 30.9969L66.6221 30.9318ZM82.5029 63.9297H69.4545C68.5028 63.9297 67.5901 63.5527 66.9172 62.8817C66.2442 62.2107 65.8662 61.3007 65.8662 60.3517C65.8662 59.4028 66.2442 58.4927 66.9172 57.8217C67.5901 57.1507 68.5028 56.7738 69.4545 56.7738H82.5029C83.4546 56.7738 84.3673 57.1507 85.0403 57.8217C85.7132 58.4927 86.0913 59.4028 86.0913 60.3517C86.0913 61.3007 85.7132 62.2107 85.0403 62.8817C84.3673 63.5527 83.4546 63.9297 82.5029 63.9297ZM141.873 63.2792C141.87 64.3134 141.457 65.3045 140.723 66.0358C139.99 66.7671 138.996 67.1794 137.959 67.1824H128.172C127.135 67.1794 126.141 66.7671 125.408 66.0358C124.674 65.3045 124.261 64.3134 124.258 63.2792V57.4243C124.261 56.3901 124.674 55.399 125.408 54.6677C126.141 53.9363 127.135 53.5241 128.172 53.5211H137.959C138.996 53.5241 139.99 53.9363 140.723 54.6677C141.457 55.399 141.87 56.3901 141.873 57.4243V63.2792Z" fill="#1DBF73"/>
<path d="M131.271 62.1407H127.031C126.728 62.1407 126.438 62.2607 126.223 62.4742C126.009 62.6877 125.889 62.9772 125.889 63.2792C125.889 63.5811 126.009 63.8707 126.223 64.0842C126.438 64.2977 126.728 64.4176 127.031 64.4176H131.271C131.574 64.4176 131.865 64.2977 132.079 64.0842C132.293 63.8707 132.413 63.5811 132.413 63.2792C132.413 62.9772 132.293 62.6877 132.079 62.4742C131.865 62.2607 131.574 62.1407 131.271 62.1407ZM131.271 63.7671H127.031C126.966 63.7672 126.903 63.7547 126.843 63.7303C126.784 63.7059 126.729 63.67 126.684 63.6246C126.638 63.5793 126.602 63.5255 126.577 63.4662C126.553 63.4069 126.54 63.3433 126.54 63.2792C126.54 63.215 126.553 63.1514 126.577 63.0922C126.602 63.0329 126.638 62.979 126.684 62.9337C126.729 62.8884 126.784 62.8525 126.843 62.828C126.903 62.8036 126.966 62.7911 127.031 62.7913H131.271C131.401 62.7916 131.525 62.8432 131.617 62.9346C131.708 63.0261 131.759 63.15 131.759 63.2792C131.759 63.4083 131.708 63.5323 131.617 63.6237C131.525 63.7152 131.401 63.7667 131.271 63.7671Z" fill="#1DBF73"/>
<path d="M139.101 62.1407H134.86C134.557 62.1407 134.267 62.2607 134.053 62.4742C133.838 62.6877 133.718 62.9772 133.718 63.2792C133.718 63.5811 133.838 63.8707 134.053 64.0842C134.267 64.2977 134.557 64.4176 134.86 64.4176H139.101C139.403 64.4176 139.694 64.2977 139.908 64.0842C140.122 63.8707 140.242 63.5811 140.242 63.2792C140.242 62.9772 140.122 62.6877 139.908 62.4742C139.694 62.2607 139.403 62.1407 139.101 62.1407ZM139.101 63.7671H134.86C134.796 63.7672 134.732 63.7547 134.672 63.7303C134.613 63.7059 134.559 63.67 134.513 63.6246C134.467 63.5793 134.431 63.5255 134.407 63.4662C134.382 63.4069 134.369 63.3433 134.369 63.2792C134.369 63.215 134.382 63.1514 134.407 63.0922C134.431 63.0329 134.467 62.979 134.513 62.9337C134.559 62.8884 134.613 62.8525 134.672 62.828C134.732 62.8036 134.796 62.7911 134.86 62.7913H139.101C139.23 62.7916 139.354 62.8432 139.446 62.9346C139.537 63.0261 139.589 63.15 139.589 63.2792C139.589 63.4083 139.537 63.5323 139.446 63.6237C139.354 63.7152 139.23 63.7667 139.101 63.7671Z" fill="#1DBF73"/>
<path d="M131.271 59.2133H127.031C126.728 59.2133 126.438 59.3332 126.223 59.5467C126.009 59.7602 125.889 60.0498 125.889 60.3517C125.889 60.6537 126.009 60.9432 126.223 61.1567C126.438 61.3702 126.728 61.4902 127.031 61.4902H131.271C131.574 61.4902 131.865 61.3702 132.079 61.1567C132.293 60.9432 132.413 60.6537 132.413 60.3517C132.413 60.0498 132.293 59.7602 132.079 59.5467C131.865 59.3332 131.574 59.2133 131.271 59.2133ZM131.271 60.8396H127.031C126.966 60.8396 126.903 60.827 126.843 60.8025C126.784 60.778 126.73 60.742 126.685 60.6967C126.639 60.6514 126.603 60.5976 126.579 60.5385C126.554 60.4793 126.541 60.4158 126.541 60.3517C126.541 60.2877 126.554 60.2242 126.579 60.165C126.603 60.1058 126.639 60.0521 126.685 60.0067C126.73 59.9614 126.784 59.9255 126.843 59.901C126.903 59.8765 126.966 59.8638 127.031 59.8638H131.271C131.336 59.8638 131.399 59.8765 131.459 59.901C131.518 59.9255 131.572 59.9614 131.617 60.0067C131.663 60.0521 131.699 60.1058 131.724 60.165C131.748 60.2242 131.761 60.2877 131.761 60.3517C131.761 60.4158 131.748 60.4793 131.724 60.5385C131.699 60.5976 131.663 60.6514 131.617 60.6967C131.572 60.742 131.518 60.778 131.459 60.8025C131.399 60.827 131.336 60.8396 131.271 60.8396Z" fill="#1DBF73"/>
<path d="M139.101 59.2133H134.86C134.557 59.2133 134.267 59.3332 134.053 59.5467C133.838 59.7602 133.718 60.0498 133.718 60.3517C133.718 60.6537 133.838 60.9432 134.053 61.1567C134.267 61.3702 134.557 61.4902 134.86 61.4902H139.101C139.403 61.4902 139.694 61.3702 139.908 61.1567C140.122 60.9432 140.242 60.6537 140.242 60.3517C140.242 60.0498 140.122 59.7602 139.908 59.5467C139.694 59.3332 139.403 59.2133 139.101 59.2133ZM139.101 60.8396H134.86C134.796 60.8396 134.732 60.827 134.673 60.8025C134.613 60.778 134.559 60.742 134.514 60.6967C134.468 60.6514 134.432 60.5976 134.408 60.5385C134.383 60.4793 134.371 60.4158 134.371 60.3517C134.371 60.2877 134.383 60.2242 134.408 60.165C134.432 60.1058 134.468 60.0521 134.514 60.0067C134.559 59.9614 134.613 59.9255 134.673 59.901C134.732 59.8765 134.796 59.8638 134.86 59.8638H139.101C139.165 59.8638 139.229 59.8765 139.288 59.901C139.347 59.9255 139.401 59.9614 139.447 60.0067C139.492 60.0521 139.528 60.1058 139.553 60.165C139.577 60.2242 139.59 60.2877 139.59 60.3517C139.59 60.4158 139.577 60.4793 139.553 60.5385C139.528 60.5976 139.492 60.6514 139.447 60.6967C139.401 60.742 139.347 60.778 139.288 60.8025C139.229 60.827 139.165 60.8396 139.101 60.8396Z" fill="#1DBF73"/>
<path d="M131.271 56.2859H127.031C126.728 56.2859 126.438 56.4058 126.223 56.6193C126.009 56.8328 125.889 57.1224 125.889 57.4243C125.889 57.7263 126.009 58.0158 126.223 58.2293C126.438 58.4428 126.728 58.5628 127.031 58.5628H131.271C131.574 58.5628 131.865 58.4428 132.079 58.2293C132.293 58.0158 132.413 57.7263 132.413 57.4243C132.413 57.1224 132.293 56.8328 132.079 56.6193C131.865 56.4058 131.574 56.2859 131.271 56.2859ZM131.271 57.9122H127.031C126.966 57.9124 126.903 57.8999 126.843 57.8755C126.784 57.851 126.729 57.8151 126.684 57.7698C126.638 57.7245 126.602 57.6706 126.577 57.6113C126.553 57.5521 126.54 57.4885 126.54 57.4243C126.54 57.3602 126.553 57.2966 126.577 57.2373C126.602 57.178 126.638 57.1242 126.684 57.0789C126.729 57.0335 126.784 56.9976 126.843 56.9732C126.903 56.9487 126.966 56.9363 127.031 56.9364H131.271C131.401 56.9368 131.525 56.9883 131.617 57.0798C131.708 57.1713 131.759 57.2952 131.759 57.4243C131.759 57.5535 131.708 57.6774 131.617 57.7689C131.525 57.8603 131.401 57.9119 131.271 57.9122Z" fill="#1DBF73"/>
<path d="M139.101 56.2859H134.86C134.557 56.2859 134.267 56.4058 134.053 56.6193C133.838 56.8328 133.718 57.1224 133.718 57.4243C133.718 57.7263 133.838 58.0158 134.053 58.2293C134.267 58.4428 134.557 58.5628 134.86 58.5628H139.101C139.403 58.5628 139.694 58.4428 139.908 58.2293C140.122 58.0158 140.242 57.7263 140.242 57.4243C140.242 57.1224 140.122 56.8328 139.908 56.6193C139.694 56.4058 139.403 56.2859 139.101 56.2859ZM139.101 57.9122H134.86C134.796 57.9124 134.732 57.8999 134.672 57.8755C134.613 57.851 134.559 57.8151 134.513 57.7698C134.467 57.7245 134.431 57.6706 134.407 57.6113C134.382 57.5521 134.369 57.4885 134.369 57.4243C134.369 57.3602 134.382 57.2966 134.407 57.2373C134.431 57.178 134.467 57.1242 134.513 57.0789C134.559 57.0335 134.613 56.9976 134.672 56.9732C134.732 56.9487 134.796 56.9363 134.86 56.9364H139.101C139.23 56.9368 139.354 56.9883 139.446 57.0798C139.537 57.1713 139.589 57.2952 139.589 57.4243C139.589 57.5535 139.537 57.6774 139.446 57.7689C139.354 57.8603 139.23 57.9119 139.101 57.9122Z" fill="#1DBF73"/>
<path d="M42.1666 49.886C42.1666 49.886 37.5322 69.3972 43.1965 69.3972C48.8609 69.3972 62.2493 47.3187 62.2493 47.3187C62.2493 47.3187 76.1527 40.1303 70.4884 37.5631C64.824 34.9958 57.6149 41.6707 57.6149 41.6707L49.2965 53.1863L48.8608 47.3187L42.1666 49.886Z" fill="#FBBEBE"/>
<path d="M52.9821 33.4555L49.8925 30.3747C49.8925 30.3747 43.7132 33.9689 43.1982 37.5631C42.6833 41.1573 40.1086 52.4532 40.1086 52.4532L49.635 53.2234L52.7246 48.6023L52.9821 33.4555Z" fill="#CFCCE0"/>
<path d="M199.343 26.1514C198.955 25.0093 194.09 21.1268 197.071 20.4742L199.516 23.7244L210.755 12.518L211.885 13.6451L199.343 26.1514Z" fill="#1DBF73"/>
<path d="M199.343 64.258C198.955 63.1159 194.09 59.2334 197.071 58.5808L199.516 61.831L210.755 50.6246L211.885 51.7517L199.343 64.258Z" fill="#1DBF73"/>
<path d="M199.343 102.909C198.955 101.767 194.09 97.8844 197.071 97.2318L199.516 100.482L210.755 89.2755L211.885 90.4026L199.343 102.909Z" fill="#1DBF73"/>
<path d="M233.387 24.9758C235.303 24.9758 236.855 23.4275 236.855 21.5177C236.855 19.6078 235.303 18.0595 233.387 18.0595C231.472 18.0595 229.919 19.6078 229.919 21.5177C229.919 23.4275 231.472 24.9758 233.387 24.9758Z" fill="#3F3D56"/>
<path d="M302.23 21.1718H246.392V21.8635H302.23V21.1718Z" fill="#3F3D56"/>
<path d="M233.387 63.0824C235.303 63.0824 236.855 61.5342 236.855 59.6243C236.855 57.7144 235.303 56.1661 233.387 56.1661C231.472 56.1661 229.919 57.7144 229.919 59.6243C229.919 61.5342 231.472 63.0824 233.387 63.0824Z" fill="#3F3D56"/>
<path d="M302.23 59.2784H246.392V59.97H302.23V59.2784Z" fill="#3F3D56"/>
<path d="M233.387 101.733C235.303 101.733 236.855 100.185 236.855 98.2753C236.855 96.3654 235.303 94.8171 233.387 94.8171C231.472 94.8171 229.919 96.3654 229.919 98.2753C229.919 100.185 231.472 101.733 233.387 101.733Z" fill="#3F3D56"/>
<path d="M302.23 97.9294H246.392V98.621H302.23V97.9294Z" fill="#3F3D56"/>
<path d="M208.103 108.062H190.762V90.4251H202.554V91.1168H191.456V107.37H207.41V99.4163H208.103V108.062Z" fill="#3F3D56"/>
<path d="M208.103 69.3305H190.762V51.694H202.554V52.3856H191.456V68.6389H207.41V60.6852H208.103V69.3305Z" fill="#3F3D56"/>
<path d="M208.103 29.9077H190.762V12.2712H202.554V12.9628H191.456V29.2161H207.41V21.2624H208.103V29.9077Z" fill="#3F3D56"/>
</g>
<defs>
<clipPath id="clip0_598_0">
<rect width="308" height="185" fill="white"/>
</clipPath>
</defs>
</svg>
