<svg width="307" height="185" viewBox="0 0 307 185" fill="none" xmlns="http://www.w3.org/2000/svg">
<g clip-path="url(#clip0_599_2819)">
<path d="M139.286 0H63.5859V18.4402H139.286V0Z" fill="#E6E6E6"/>
<path d="M65.5703 16.4491H137.298V1.99113H65.5703V16.4491Z" fill="white"/>
<path d="M79.233 14.7282C82.2676 14.7282 84.7276 12.2621 84.7276 9.2201C84.7276 6.17805 82.2676 3.71199 79.233 3.71199C76.1983 3.71199 73.7383 6.17805 73.7383 9.2201C73.7383 12.2621 76.1983 14.7282 79.233 14.7282Z" fill="#1DBF73"/>
<path d="M129.134 7.06474H92.375V8.26216H129.134V7.06474Z" fill="#1DBF73"/>
<path d="M129.134 10.178H92.375V11.3754H129.134V10.178Z" fill="#1DBF73"/>
<path d="M111.7 31.0334H36V49.4735H111.7V31.0334Z" fill="#E6E6E6"/>
<path d="M37.9883 47.4824H109.715V33.0245H37.9883V47.4824Z" fill="white"/>
<path d="M51.647 45.7616C54.6817 45.7616 57.1417 43.2955 57.1417 40.2535C57.1417 37.2114 54.6817 34.7453 51.647 34.7453C48.6124 34.7453 46.1523 37.2114 46.1523 40.2535C46.1523 43.2955 48.6124 45.7616 51.647 45.7616Z" fill="#E6E6E6"/>
<path d="M101.544 38.0981H64.7852V39.2955H101.544V38.0981Z" fill="#E6E6E6"/>
<path d="M101.544 41.2114H64.7852V42.4088H101.544V41.2114Z" fill="#E6E6E6"/>
<path d="M111.7 62.0667H36V80.5069H111.7V62.0667Z" fill="#E6E6E6"/>
<path d="M37.9883 78.5158H109.715V64.0579H37.9883V78.5158Z" fill="white"/>
<path d="M51.647 76.7949C54.6817 76.7949 57.1417 74.3288 57.1417 71.2868C57.1417 68.2448 54.6817 65.7787 51.647 65.7787C48.6124 65.7787 46.1523 68.2448 46.1523 71.2868C46.1523 74.3288 48.6124 76.7949 51.647 76.7949Z" fill="#E6E6E6"/>
<path d="M101.544 69.1315H64.7852V70.3289H101.544V69.1315Z" fill="#E6E6E6"/>
<path d="M101.544 72.2447H64.7852V73.4422H101.544V72.2447Z" fill="#E6E6E6"/>
<path d="M154.488 27.8589L159.375 39.9166L162.382 48.2063L170.276 36.5254C170.276 36.5254 165.389 31.6269 165.389 25.2213L154.488 27.8589Z" fill="#E2ABAB"/>
<path d="M139.83 155.972L137.574 167.276L143.964 172.552L146.596 155.972H139.83Z" fill="#FBBEBE"/>
<path d="M176.666 153.335L175.914 166.9L182.304 165.769L183.056 154.088L176.666 153.335Z" fill="#FBBEBE"/>
<path d="M159.938 34.0761C164.713 34.0761 168.584 30.196 168.584 25.4096C168.584 20.6232 164.713 16.7431 159.938 16.7431C155.164 16.7431 151.293 20.6232 151.293 25.4096C151.293 30.196 155.164 34.0761 159.938 34.0761Z" fill="#FBBEBE"/>
<path d="M179.673 61.3944C179.673 61.3944 182.68 87.7707 180.425 87.7707C178.169 87.7707 167.269 85.5099 165.013 83.6259C162.758 81.7419 155.616 82.4955 155.616 82.4955C155.616 82.4955 150.354 86.6403 147.723 84.3795C145.091 82.1187 149.602 55.7424 149.602 55.7424L148.474 39.5398C148.474 39.5398 153.361 38.0326 155.616 40.2934L156.304 39.4757L158.259 37.1622L161.254 39.9166L161.288 40.0447L162.382 44.0615C162.382 44.0615 163.983 38.6053 165.115 37.4674C165.192 37.3859 165.286 37.3217 165.389 37.279C166.517 36.9022 168.499 34.2517 168.499 34.2517L172.96 36.5367L173.283 36.9022L182.68 39.5398L179.673 61.3944Z" fill="#E6E6E6"/>
<path d="M149.977 82.8723L149.225 86.6403C149.225 86.6403 145.09 87.394 146.218 95.3069L143.211 123.19L138.324 157.856L147.345 158.987L164.636 107.741L175.161 156.349H184.558L182.679 102.089C182.679 102.089 184.182 90.7852 178.92 85.5099C173.658 80.2347 154.487 79.8579 149.977 82.8723Z" fill="#2F2E41"/>
<path d="M141.331 168.03C141.331 168.03 142.082 165.016 140.203 164.639C138.324 164.262 136.82 165.769 136.444 166.523C136.068 167.277 127.423 177.827 127.423 177.827C127.423 177.827 121.033 185.363 130.43 184.986C139.827 184.61 140.203 180.088 140.203 180.088C140.203 180.088 140.203 179.334 142.082 179.334C143.962 179.334 148.848 176.697 148.472 174.813C148.097 172.929 144.936 166.417 144.936 166.417C144.936 166.417 142.834 171.798 141.331 168.03Z" fill="#2F2E41"/>
<path d="M183.055 163.508C183.055 163.508 179.672 161.248 177.793 162.755C175.914 164.262 175.162 164.639 175.162 164.639L175.131 164.867C174.797 167.656 175.103 170.485 176.025 173.138C176.248 173.808 175.809 174.29 175.914 174.813C176.477 177.639 177.041 181.218 182.68 179.711C188.318 178.204 183.055 163.508 183.055 163.508Z" fill="#2F2E41"/>
<path d="M180.425 91.162C180.425 91.162 174.035 97.9445 177.794 100.205C181.553 102.466 183.808 93.046 183.808 93.046L180.425 91.162Z" fill="#FBBEBE"/>
<path d="M138.728 20.5708C138.728 20.5708 143.162 12.3683 138.949 11.1533C134.736 9.93819 134.975 19.6228 134.975 19.6228L138.728 20.5708Z" fill="#FBBEBE"/>
<path d="M177.793 40.6702L182.679 39.5398C182.679 39.5398 187.942 43.6846 189.821 58.0032C191.701 72.3218 184.559 95.3068 184.559 95.3068L178.921 91.9156C178.921 91.9156 181.928 73.829 181.552 71.1914C181.176 68.5537 178.921 58.38 178.921 58.38L177.793 40.6702Z" fill="#E6E6E6"/>
<path d="M153.177 16.1002L151.604 15.527C151.604 15.527 154.892 12.2308 159.467 12.5174L158.181 11.2276C158.181 11.2276 161.326 10.0811 164.185 13.0907C165.688 14.6727 167.427 16.5323 168.511 18.6272H170.195L169.492 20.0364L171.953 21.4456L169.427 21.1925C169.667 22.4091 169.584 23.6673 169.189 24.8422L168.617 26.4187C168.617 26.4187 166.329 21.8327 166.329 21.2594V22.6926C166.329 22.6926 164.757 21.4028 164.757 20.5429L163.899 21.5461L163.47 19.9696L158.181 21.5461L159.038 20.2563L155.75 20.6862L157.037 19.1098C157.037 19.1098 153.925 21.2648 153.177 22.5493C152.381 23.9161 151.175 26.132 151.175 26.132L150.318 24.6989C150.318 24.6989 149.031 18.2499 153.177 16.1002Z" fill="#2F2E41"/>
<path d="M150.355 40.2934L148.475 39.5398L138.514 38.221L139.078 20.3228L134.567 16.1779C134.567 16.1779 122.163 38.7862 134.943 47.0759C147.723 55.3656 151.858 56.8728 151.858 56.8728L150.355 40.2934Z" fill="#E6E6E6"/>
<path d="M248.661 137.461L252.082 131.901C250.977 129.012 249.71 126.189 248.289 123.444L246.043 125.345L247.795 122.498C246.004 119.122 244.605 117 244.605 117C244.605 117 237.749 128.368 235.621 140.3L240.293 147.252L235.196 143.279C235.045 144.667 234.981 146.063 235.004 147.459C235.286 161.534 240.084 172.852 245.72 172.738C251.357 172.623 255.698 161.121 255.417 147.046C255.329 142.682 254.257 138.137 252.819 133.942L248.661 137.461Z" fill="#E6E6E6"/>
<path d="M264.141 143.668L269.927 140.687C270.465 137.64 270.831 134.565 271.025 131.476L268.126 131.936L271.088 130.409C271.29 126.587 271.183 124.044 271.183 124.044C271.183 124.044 259.472 130.21 251.52 139.318L251.947 147.699L249.625 141.647C248.783 142.756 248.011 143.918 247.313 145.125C240.322 157.321 238.614 169.504 243.498 172.337C248.382 175.171 258.009 167.582 265 155.386C267.167 151.605 268.584 147.157 269.509 142.817L264.141 143.668Z" fill="#E6E6E6"/>
<path d="M235.093 188.68C241.759 189.109 249.023 188.655 256.75 188.68V170.882C249.941 171.948 242.68 171.839 235.093 170.882V188.68Z" fill="#E6E6E6"/>
</g>
<defs>
<clipPath id="clip0_599_2819">
<rect width="307" height="185" fill="white"/>
</clipPath>
</defs>
</svg>
