<svg width="25" height="24" viewBox="0 0 25 24" fill="none" xmlns="http://www.w3.org/2000/svg">
<path d="M10.4565 1.63397C11.1902 0.147477 13.3098 0.14748 14.0435 1.63397L16.1931 5.98949C16.4844 6.57978 17.0475 6.98891 17.6989 7.08357L22.5055 7.78201C24.146 8.02038 24.801 10.0363 23.6139 11.1934L20.1359 14.5837C19.6645 15.0432 19.4494 15.7052 19.5607 16.354L20.3817 21.1411C20.662 22.7749 18.9471 24.0209 17.4798 23.2495L13.1807 20.9893C12.598 20.683 11.902 20.683 11.3193 20.9893L7.02017 23.2495C5.55291 24.0209 3.83805 22.7749 4.11827 21.1411L4.93933 16.354C5.05061 15.7052 4.83551 15.0432 4.36414 14.5837L0.886054 11.1934C-0.300981 10.0363 0.354037 8.02038 1.99448 7.78201L6.80107 7.08357C7.45249 6.98891 8.01563 6.57978 8.30695 5.98949L10.4565 1.63397Z" fill="#FBA457"/>
</svg>
