<svg width="50" height="45" viewBox="0 0 50 45" fill="none" xmlns="http://www.w3.org/2000/svg">
<path d="M47.7272 29.5455H2.27275C1.02275 29.5455 0 28.5228 0 27.2728V2.27275C0 1.02275 1.02275 0 2.27275 0H47.7273C48.9773 0 50.0001 1.02275 50.0001 2.27275V27.2728C50 28.5228 48.9772 29.5455 47.7272 29.5455Z" fill="#0E9347"/>
<path d="M42.0447 20.4546C39.4311 20.4546 37.0447 21.7046 35.6811 23.75C34.5447 23.1819 33.2947 22.7273 31.8175 22.7273C27.8402 22.7273 24.5447 25.6819 23.9766 29.5455H47.7266C48.8629 29.5455 49.772 28.7501 49.9993 27.6137C49.5447 23.6364 46.1357 20.4546 42.0447 20.4546Z" fill="#0D8944"/>
<path d="M43.1825 27.2728H6.81885C6.81885 24.7728 4.77344 22.7274 2.27344 22.7274V6.81836C4.77344 6.81836 6.81885 4.77295 6.81885 2.27295H43.1825C43.1825 4.77295 45.2279 6.81836 47.7279 6.81836V22.7274C45.2279 22.7274 43.1825 24.7728 43.1825 27.2728Z" fill="#3BB54A"/>
<path d="M42.0426 20.4546C39.4289 20.4546 37.0426 21.7046 35.6789 23.75C34.5426 23.1819 33.2926 22.7273 31.8153 22.7273C28.6335 22.7273 25.9062 24.5455 24.6562 27.2728H43.179C43.179 24.7728 45.1108 22.8409 47.6108 22.7273C46.1335 21.3637 44.2018 20.4546 42.0426 20.4546Z" fill="#0E9347"/>
<path d="M24.9972 24.9999C30.0179 24.9999 34.0881 20.421 34.0881 14.7727C34.0881 9.1243 30.0179 4.54541 24.9972 4.54541C19.9764 4.54541 15.9062 9.1243 15.9062 14.7727C15.9062 20.421 19.9764 24.9999 24.9972 24.9999Z" fill="#0E9347"/>
<path d="M11.3626 17.0453C12.6178 17.0453 13.6354 16.0277 13.6354 14.7725C13.6354 13.5173 12.6178 12.4998 11.3626 12.4998C10.1074 12.4998 9.08984 13.5173 9.08984 14.7725C9.08984 16.0277 10.1074 17.0453 11.3626 17.0453Z" fill="#0E9347"/>
<path d="M38.636 17.0453C39.8912 17.0453 40.9088 16.0277 40.9088 14.7725C40.9088 13.5173 39.8912 12.4998 38.636 12.4998C37.3808 12.4998 36.3633 13.5173 36.3633 14.7725C36.3633 16.0277 37.3808 17.0453 38.636 17.0453Z" fill="#0E9347"/>
<path d="M26.1349 13.6365H23.8621C23.1803 13.6365 22.7258 13.1819 22.7258 12.5001C22.7258 11.8183 23.1804 11.3638 23.8621 11.3638H27.2712C27.953 11.3638 28.4075 10.9092 28.4075 10.2275C28.4075 9.54566 27.9529 9.09116 27.2712 9.09116H26.1349C26.1349 8.40933 25.6803 7.95483 24.9985 7.95483C24.3167 7.95483 23.8622 8.40942 23.8622 9.09116C21.9304 9.09116 20.4531 10.5684 20.4531 12.5002C20.4531 14.4321 21.9304 15.9093 23.8622 15.9093H26.135C26.8168 15.9093 27.2713 16.3639 27.2713 17.0457C27.2713 17.7275 26.8167 18.182 26.135 18.182H22.7259C22.044 18.182 21.5896 18.6366 21.5896 19.3183C21.5896 20.0001 22.0441 20.4546 22.7259 20.4546H23.8622C23.8622 21.1365 24.3168 21.591 24.9985 21.591C25.6804 21.591 26.1349 21.1364 26.1349 20.4546C28.0667 20.4546 29.5439 18.9774 29.5439 17.0456C29.5439 15.1137 28.0667 13.6365 26.1349 13.6365Z" fill="#89C763"/>
<path d="M29.5444 38.6365C33.9376 38.6365 37.499 35.0751 37.499 30.6819C37.499 26.2887 33.9376 22.7273 29.5444 22.7273C25.1512 22.7273 21.5898 26.2887 21.5898 30.6819C21.5898 35.0751 25.1512 38.6365 29.5444 38.6365Z" fill="#FFCA5D"/>
<path d="M39.771 36.3638C44.1642 36.3638 47.7256 32.8024 47.7256 28.4092C47.7256 24.016 44.1642 20.4546 39.771 20.4546C35.3778 20.4546 31.8164 24.016 31.8164 28.4092C31.8164 32.8024 35.3778 36.3638 39.771 36.3638Z" fill="#F6B545"/>
<path d="M39.771 20.4546C35.3392 20.4546 31.8164 23.9773 31.8164 28.4092C31.8164 32.841 35.3392 36.3638 39.771 36.3638C44.2028 36.3638 47.7256 32.841 47.7256 28.4092C47.7256 23.9773 44.2028 20.4546 39.771 20.4546ZM39.771 34.091C36.5892 34.091 34.0892 31.591 34.0892 28.4092C34.0892 25.2273 36.5892 22.7273 39.771 22.7273C42.9528 22.7273 45.4528 25.2273 45.4528 28.4092C45.4528 31.591 42.9528 34.091 39.771 34.091Z" fill="#FFCB5B"/>
<path d="M39.7734 36.2498C44.2053 36.3635 47.728 32.7271 47.728 28.4089H47.6144C47.0462 28.4089 46.5916 28.8635 46.478 29.4317C46.2508 31.0226 45.4553 32.4998 44.3189 33.5226C43.4099 34.4317 42.1599 34.9998 40.7962 35.2271C40.2279 35.2271 39.7734 35.6817 39.7734 36.2498Z" fill="#F6B545"/>
<path d="M39.771 20.5683C35.3392 20.4546 31.8164 24.091 31.8164 28.4092H31.9301C32.4982 28.4092 32.9528 27.9546 33.0664 27.3864C33.2937 25.7955 34.0892 24.3183 35.2255 23.2955C36.1346 22.3864 37.3846 21.8183 38.7482 21.5909C39.3164 21.591 39.771 21.1364 39.771 20.5683Z" fill="#FFE27A"/>
<path d="M34.8853 29.2045C34.8853 26.0227 37.3853 23.5227 40.5671 23.5227C41.9308 23.5227 43.1808 23.9773 44.2034 24.8864C43.0671 23.5227 41.5898 22.7273 39.7717 22.7273C36.5898 22.7273 34.0898 25.2273 34.0898 28.4091C34.0898 30.2273 34.8853 31.7045 36.1353 32.7273C35.3398 31.8182 34.8853 30.5682 34.8853 29.2045Z" fill="#F19920"/>
<path d="M43.1832 31.932C43.0696 31.932 42.956 31.932 42.8423 31.8183C42.6151 31.5911 42.6151 31.2501 42.8423 31.0229C43.5241 30.3411 43.8651 29.3183 43.8651 28.4092C43.8651 28.0683 44.0923 27.8411 44.4332 27.8411C44.7742 27.8411 45.0014 28.0683 45.0014 28.4092C45.0014 29.6592 44.5468 30.9092 43.7514 31.8183C43.5241 31.932 43.2968 31.932 43.1832 31.932Z" fill="#FFCB5B"/>
<path d="M39.773 31.8183C39.0912 31.8183 38.6367 31.3637 38.6367 30.682V26.1366C38.6367 25.4547 39.0913 25.0002 39.773 25.0002C40.4548 25.0002 40.9094 25.4548 40.9094 26.1366V30.682C40.9094 31.3637 40.4549 31.8183 39.773 31.8183Z" fill="#F19920"/>
<path d="M43.9791 35.1136C43.1837 32.2727 41.1382 30 38.5245 28.9773C38.0699 26.3636 36.3654 24.091 34.2063 22.7273C32.8427 24.2045 31.9336 26.1364 31.9336 28.2955C31.9336 32.7273 35.4563 36.25 39.8882 36.25C41.3655 36.3636 42.7291 35.9091 43.9791 35.1136Z" fill="#F19920"/>
<path d="M36.1354 32.7272C35.3399 31.7045 34.7717 30.4545 34.7717 29.0909C34.7717 27.5 35.4535 26.0228 36.5898 25C36.3626 24.6591 36.1353 24.4318 35.908 24.2046C34.7717 25.2273 34.0898 26.7046 34.0898 28.4092C34.0899 30.2272 34.8854 31.7045 36.1354 32.7272Z" fill="#E78825"/>
<path d="M38.6367 29.0908V30.6817C38.6367 31.3636 39.0913 31.8181 39.773 31.8181C40.4548 31.8181 40.9094 31.3635 40.9094 30.6817V30.4545C40.2276 29.8862 39.4322 29.4317 38.6367 29.0908Z" fill="#E78825"/>
<path d="M43.9755 35.1134C43.7482 34.318 43.5209 33.6362 43.0664 32.9543C42.1573 33.6362 41.021 34.0907 39.771 34.0907C36.5892 34.0907 34.0892 31.5907 34.0892 28.4088C34.0892 26.7042 34.771 25.227 35.9073 24.2042C35.3392 23.6361 34.771 23.1815 34.0892 22.8406C32.7255 24.3178 31.8164 26.2497 31.8164 28.4087C31.8164 32.8406 35.3392 36.3633 39.771 36.3633C41.3619 36.3634 42.7255 35.9089 43.9755 35.1134Z" fill="#F6B545"/>
<path d="M43.6371 34.0911C42.8417 34.6592 41.8189 35.0001 40.7962 35.2274C40.228 35.3411 39.7734 35.7956 39.7734 36.3637C41.3644 36.3637 42.728 35.9091 43.978 35.1137C43.8645 34.7728 43.7508 34.432 43.6371 34.0911Z" fill="#F19920"/>
<path d="M34.0892 22.8408C32.7255 24.3181 31.8164 26.2499 31.8164 28.409H31.9301C32.4982 28.409 32.9528 27.9544 33.0664 27.3862C33.2937 25.7953 34.0892 24.4316 35.1118 23.409C34.771 23.2953 34.4301 23.0681 34.0892 22.8408Z" fill="#FFCB5B"/>
<path d="M29.5444 38.6365C33.9376 38.6365 37.499 35.0751 37.499 30.6819C37.499 26.2887 33.9376 22.7273 29.5444 22.7273C25.1512 22.7273 21.5898 26.2887 21.5898 30.6819C21.5898 35.0751 25.1512 38.6365 29.5444 38.6365Z" fill="#F6B545"/>
<path d="M28.4102 36.3638C28.4102 37.1592 28.5238 37.841 28.7511 38.6365C28.9783 38.6365 29.3192 38.6365 29.5465 38.6365C33.9783 38.6365 37.5011 35.1138 37.5011 30.6819C37.5011 29.8865 37.3874 29.2047 37.1602 28.4092C36.9329 28.4092 36.592 28.4092 36.3647 28.4092C31.9329 28.4093 28.4102 31.932 28.4102 36.3638Z" fill="#F19920"/>
<path d="M29.5444 22.7273C25.1126 22.7273 21.5898 26.25 21.5898 30.6819C21.5898 35.1137 25.1126 38.6365 29.5444 38.6365C33.9763 38.6365 37.499 35.1136 37.499 30.6819C37.499 26.2501 33.9763 22.7273 29.5444 22.7273ZM29.5444 36.3636C26.3626 36.3636 23.8626 33.8636 23.8626 30.6818C23.8626 27.5 26.3626 25 29.5444 25C32.7263 25 35.2263 27.5 35.2263 30.6818C35.2263 33.8636 32.7263 36.3636 29.5444 36.3636Z" fill="#FFCB5B"/>
<path d="M29.5469 38.5227C33.9787 38.6364 37.5015 35 37.5015 30.6819H37.3878C36.8196 30.6819 36.365 31.1365 36.2515 31.7046C36.0242 33.2956 35.2287 34.7728 34.0924 35.7956C33.1833 36.7046 31.9333 37.2728 30.5696 37.5001C30.0015 37.5 29.5469 37.9545 29.5469 38.5227Z" fill="#F6B545"/>
<path d="M29.5444 22.841C25.1126 22.7273 21.5898 26.3637 21.5898 30.6819H21.7035C22.2717 30.6819 22.7263 30.2273 22.8398 29.6591C23.0671 28.0682 23.8626 26.591 24.9989 25.5682C25.908 24.6591 27.158 24.091 28.5217 23.8636C29.0899 23.8636 29.5444 23.4091 29.5444 22.841Z" fill="#FFE27A"/>
<path d="M24.6588 31.4772C24.6588 28.2954 27.1588 25.7954 30.3406 25.7954C31.7043 25.7954 32.9543 26.25 33.977 27.1591C32.8406 25.7954 31.3633 25 29.5451 25C26.3633 25 23.8633 27.5 23.8633 30.6818C23.8633 32.5 24.6587 33.9772 25.9087 35C25.1134 34.0909 24.6588 32.8409 24.6588 31.4772Z" fill="#F19920"/>
<path d="M32.9528 34.2044C32.8391 34.2044 32.7255 34.2044 32.6118 34.0908C32.3846 33.8635 32.3846 33.5226 32.6118 33.2954C33.2937 32.6135 33.6346 31.5908 33.6346 30.6817C33.6346 30.3408 33.8618 30.1135 34.2028 30.1135C34.5437 30.1135 34.7709 30.3408 34.7709 30.6817C34.7709 31.9317 34.3163 33.1817 33.5209 34.0908C33.2936 34.2044 33.0663 34.2044 32.9528 34.2044Z" fill="#FFCB5B"/>
<path d="M29.5465 34.091C28.8646 34.091 28.4102 33.6364 28.4102 32.9547V28.4093C28.4102 27.7274 28.8647 27.2729 29.5465 27.2729C30.2283 27.2729 30.6828 27.7275 30.6828 28.4093V32.9547C30.6829 33.6364 30.2283 34.091 29.5465 34.091Z" fill="#F19920"/>
<path d="M34.7737 28.5229C35.001 29.2047 35.2283 29.8865 35.2283 30.6819C35.2283 33.8638 32.7283 36.3638 29.5465 36.3638C29.2056 36.3638 28.7511 36.3638 28.4102 36.2501V36.3638C28.4102 37.1592 28.5238 37.841 28.7511 38.6365C28.9783 38.6365 29.3192 38.6365 29.5465 38.6365C33.9783 38.6365 37.5011 35.1138 37.5011 30.6819C37.5011 29.8865 37.3874 29.2047 37.1602 28.4092C36.9329 28.4092 36.592 28.4092 36.3647 28.4092C35.7964 28.4093 35.3419 28.4093 34.7737 28.5229Z" fill="#F6B545"/>
<path d="M35.228 45.4548C39.6212 45.4548 43.1826 41.8934 43.1826 37.5002C43.1826 33.107 39.6212 29.5457 35.228 29.5457C30.8348 29.5457 27.2734 33.107 27.2734 37.5002C27.2734 41.8934 30.8348 45.4548 35.228 45.4548Z" fill="#F6B545"/>
<path d="M35.228 29.5457C30.7962 29.5457 27.2734 33.0684 27.2734 37.5002C27.2734 41.9321 30.7962 45.4548 35.228 45.4548C39.6599 45.4548 43.1826 41.9321 43.1826 37.5002C43.1826 33.0684 39.6599 29.5457 35.228 29.5457ZM35.228 43.1821C32.0462 43.1821 29.5462 40.6821 29.5462 37.5002C29.5462 34.3184 32.0462 31.8184 35.228 31.8184C38.4099 31.8184 40.9099 34.3184 40.9099 37.5002C40.9099 40.6821 38.4099 43.1821 35.228 43.1821Z" fill="#FFCB5B"/>
<path d="M35.2266 45.3409C39.6584 45.4546 43.1812 41.8182 43.1812 37.5H43.0675C42.4993 37.5 42.0447 37.9546 41.9312 38.5228C41.7039 40.1137 40.9084 41.5909 39.7721 42.6137C38.863 43.5227 37.613 44.0909 36.2493 44.3183C35.6812 44.3182 35.2266 44.7726 35.2266 45.3409Z" fill="#F6B545"/>
<path d="M35.228 29.6591C30.7962 29.5454 27.2734 33.1818 27.2734 37.5H27.3871C27.9553 37.5 28.4099 37.0454 28.5234 36.4772C28.7507 34.8863 29.5462 33.4091 30.6825 32.3863C31.5916 31.4773 32.8416 30.9091 34.2053 30.6817C34.7735 30.6818 35.228 30.2273 35.228 29.6591Z" fill="#FFE27A"/>
<path d="M30.3424 38.2954C30.3424 35.1135 32.8424 32.6135 36.0242 32.6135C37.3879 32.6135 38.6379 33.0681 39.6605 33.9772C38.5242 32.6135 37.0469 31.8181 35.2287 31.8181C32.0469 31.8181 29.5469 34.3181 29.5469 37.5C29.5469 39.3181 30.3423 40.7954 31.5923 41.8181C30.7969 40.909 30.3424 39.659 30.3424 38.2954Z" fill="#F19920"/>
<path d="M38.6364 41.0226C38.5227 41.0226 38.4091 41.0226 38.2954 40.9089C38.0682 40.6816 38.0682 40.3407 38.2954 40.1135C38.9773 39.4316 39.3182 38.4089 39.3182 37.4998C39.3182 37.1589 39.5454 36.9316 39.8864 36.9316C40.2273 36.9316 40.4545 37.1589 40.4545 37.4998C40.4545 38.7498 39.9999 39.9998 39.2045 40.9089C38.9773 41.0226 38.75 41.0226 38.6364 41.0226Z" fill="#FFCB5B"/>
<path d="M35.2262 40.9092C34.5443 40.9092 34.0898 40.4546 34.0898 39.7729V35.2274C34.0898 34.5456 34.5444 34.0911 35.2262 34.0911C35.908 34.0911 36.3625 34.5457 36.3625 35.2274V39.7728C36.3626 40.4546 35.908 40.9092 35.2262 40.9092Z" fill="#F19920"/>
</svg>
