<svg width="70" height="71" viewBox="0 0 70 71" fill="none" xmlns="http://www.w3.org/2000/svg">
<path d="M0 35.5C0 54.799 15.701 70.5 35 70.5C54.299 70.5 70 54.799 70 35.5C70 16.201 54.299 0.5 35 0.5C15.701 0.5 0 16.201 0 35.5ZM17.5 35.5C17.5 34.5717 17.8687 33.6815 18.5251 33.0251C19.1815 32.3687 20.0717 32 21 32H31.5V21.5C31.5 20.5717 31.8687 19.6815 32.5251 19.0251C33.1815 18.3687 34.0717 18 35 18C35.9283 18 36.8185 18.3687 37.4749 19.0251C38.1312 19.6815 38.5 20.5717 38.5 21.5V32H49C49.9283 32 50.8185 32.3687 51.4749 33.0251C52.1312 33.6815 52.5 34.5717 52.5 35.5C52.5 36.4283 52.1312 37.3185 51.4749 37.9749C50.8185 38.6312 49.9283 39 49 39H38.5V49.5C38.5 50.4283 38.1312 51.3185 37.4749 51.9749C36.8185 52.6312 35.9283 53 35 53C34.0717 53 33.1815 52.6312 32.5251 51.9749C31.8687 51.3185 31.5 50.4283 31.5 49.5V39H21C20.0717 39 19.1815 38.6312 18.5251 37.9749C17.8687 37.3185 17.5 36.4283 17.5 35.5Z" fill="#1DBF73"/>
</svg>
