<svg width="44" height="44" viewBox="0 0 44 44" fill="none" xmlns="http://www.w3.org/2000/svg">
<circle cx="22" cy="22" r="22" fill="#B0AAD0"/>
<g clip-path="url(#clip0_226_1711)">
<path d="M17.243 32C16.5546 32.0011 15.8728 31.8663 15.2366 31.6032C14.6005 31.3401 14.0226 30.954 13.536 30.467C13.0477 29.9811 12.6605 29.4032 12.3969 28.7667C12.1332 28.1303 11.9983 27.4479 12 26.759C12 25.357 12.546 24.04 13.536 23.051L23.051 13.532C23.6614 12.9235 24.4122 12.4747 25.2371 12.2252C26.062 11.9756 26.9356 11.9329 27.7809 12.1009C28.6262 12.2689 29.4171 12.6424 30.0839 13.1885C30.7506 13.7346 31.2727 14.4364 31.604 15.232C31.8675 15.8686 32.0021 16.5511 32 17.24C32.0021 17.9289 31.8675 18.6113 31.604 19.2478C31.3405 19.8843 30.9534 20.4622 30.465 20.948L26.207 25.208C25.8438 25.5706 25.3969 25.8381 24.9057 25.9869C24.4145 26.1358 23.8943 26.1613 23.3909 26.0612C22.8875 25.9612 22.4165 25.7387 22.0196 25.4133C21.6226 25.088 21.312 24.6699 21.115 24.196C20.9579 23.8169 20.8777 23.4103 20.879 23C20.879 22.165 21.203 21.381 21.793 20.792L26.293 16.291C26.3853 16.1955 26.4956 16.1193 26.6176 16.0669C26.7396 16.0145 26.8708 15.9869 27.0036 15.9857C27.1364 15.9846 27.2681 16.0099 27.391 16.0602C27.5139 16.1104 27.6255 16.1847 27.7194 16.2786C27.8133 16.3725 27.8876 16.4841 27.9378 16.607C27.9881 16.7299 28.0134 16.8616 28.0123 16.9944C28.0111 17.1272 27.9835 17.2584 27.9311 17.3804C27.8787 17.5024 27.8025 17.6127 27.707 17.705L23.207 22.206C23.1024 22.31 23.0196 22.4337 22.9632 22.57C22.9069 22.7063 22.8783 22.8525 22.879 23C22.8782 23.1474 22.9067 23.2935 22.9627 23.4298C23.0188 23.5661 23.1014 23.6899 23.2056 23.7941C23.3099 23.8983 23.4338 23.9807 23.5702 24.0366C23.7065 24.0926 23.8526 24.1209 24 24.12C24.297 24.12 24.582 24.002 24.793 23.793L29.051 19.533C29.3529 19.2325 29.5922 18.8751 29.7551 18.4815C29.9179 18.0879 30.0012 17.6659 30 17.24C30 16.374 29.663 15.559 29.051 14.947C28.4422 14.3401 27.6176 13.9993 26.758 13.9993C25.8984 13.9993 25.0738 14.3401 24.465 14.947L14.95 24.465C14.6478 24.7657 14.4082 25.1234 14.2451 25.5173C14.0821 25.9113 13.9987 26.3336 14 26.76C14 27.626 14.338 28.44 14.95 29.053C15.5588 29.6599 16.3834 30.0006 17.243 30.0006C18.1026 30.0006 18.9272 29.6599 19.536 29.053L21.293 27.295C21.3853 27.1995 21.4956 27.1233 21.6176 27.0709C21.7396 27.0185 21.8708 26.9909 22.0036 26.9897C22.1364 26.9886 22.2681 27.0139 22.391 27.0642C22.5139 27.1144 22.6255 27.1887 22.7194 27.2826C22.8133 27.3765 22.8876 27.4881 22.9378 27.611C22.9881 27.7339 23.0134 27.8656 23.0123 27.9984C23.0111 28.1312 22.9835 28.2624 22.9311 28.3844C22.8787 28.5064 22.8025 28.6167 22.707 28.709L20.95 30.467C20.4632 30.9536 19.8852 31.3395 19.2491 31.6026C18.6131 31.8656 17.9313 32.0007 17.243 32Z" fill="#F2F0FE"/>
</g>
<defs>
<clipPath id="clip0_226_1711">
<rect width="20" height="20" fill="white" transform="translate(12 12)"/>
</clipPath>
</defs>
</svg>
