<svg width="80" height="80" viewBox="0 0 80 80" fill="none" xmlns="http://www.w3.org/2000/svg">
<rect width="80" height="80" rx="20" fill="#F2F0FE"/>
<path d="M26.176 40.304C26.176 40.4253 26.1667 40.598 26.148 40.822H20.282C20.3847 41.3727 20.6507 41.8113 21.08 42.138C21.5187 42.4553 22.06 42.614 22.704 42.614C23.5253 42.614 24.202 42.3433 24.734 41.802L25.672 42.88C25.336 43.2813 24.9113 43.5847 24.398 43.79C23.8847 43.9953 23.306 44.098 22.662 44.098C21.8407 44.098 21.1173 43.9347 20.492 43.608C19.8667 43.2813 19.3813 42.8287 19.036 42.25C18.7 41.662 18.532 40.9993 18.532 40.262C18.532 39.534 18.6953 38.8807 19.022 38.302C19.358 37.714 19.82 37.2567 20.408 36.93C20.996 36.6033 21.6587 36.44 22.396 36.44C23.124 36.44 23.7727 36.6033 24.342 36.93C24.9207 37.2473 25.3687 37.7 25.686 38.288C26.0127 38.8667 26.176 39.5387 26.176 40.304ZM22.396 37.84C21.836 37.84 21.36 38.008 20.968 38.344C20.5853 38.6707 20.352 39.1093 20.268 39.66H24.51C24.4353 39.1187 24.2067 38.68 23.824 38.344C23.4413 38.008 22.9653 37.84 22.396 37.84ZM39.1081 36.524V44H28.0901V36.524H29.8401V42.516H32.7381V36.524H34.4881V42.516H37.3581V36.524H39.1081ZM40.1861 42.516V45.54H38.5481V44H37.3021V42.516H40.1861ZM48.4612 40.304C48.4612 40.4253 48.4518 40.598 48.4332 40.822H42.5672C42.6698 41.3727 42.9358 41.8113 43.3652 42.138C43.8038 42.4553 44.3452 42.614 44.9892 42.614C45.8105 42.614 46.4872 42.3433 47.0192 41.802L47.9572 42.88C47.6212 43.2813 47.1965 43.5847 46.6832 43.79C46.1698 43.9953 45.5912 44.098 44.9472 44.098C44.1258 44.098 43.4025 43.9347 42.7772 43.608C42.1518 43.2813 41.6665 42.8287 41.3212 42.25C40.9852 41.662 40.8172 40.9993 40.8172 40.262C40.8172 39.534 40.9805 38.8807 41.3072 38.302C41.6432 37.714 42.1052 37.2567 42.6932 36.93C43.2812 36.6033 43.9438 36.44 44.6812 36.44C45.4092 36.44 46.0578 36.6033 46.6272 36.93C47.2058 37.2473 47.6538 37.7 47.9712 38.288C48.2978 38.8667 48.4612 39.5387 48.4612 40.304ZM44.6812 37.84C44.1212 37.84 43.6452 38.008 43.2532 38.344C42.8705 38.6707 42.6372 39.1093 42.5532 39.66H46.7952C46.7205 39.1187 46.4918 38.68 46.1092 38.344C45.7265 38.008 45.2505 37.84 44.6812 37.84ZM57.8564 38.246C58.7617 38.358 59.4524 38.666 59.9284 39.17C60.4044 39.674 60.6424 40.304 60.6424 41.06C60.6424 41.6293 60.4977 42.1473 60.2084 42.614C59.919 43.0807 59.4804 43.454 58.8924 43.734C58.3137 44.0047 57.6044 44.14 56.7644 44.14C56.0644 44.14 55.3877 44.042 54.7344 43.846C54.0904 43.6407 53.5397 43.3607 53.0824 43.006L53.8664 41.592C54.221 41.8907 54.6504 42.1287 55.1544 42.306C55.6677 42.474 56.195 42.558 56.7364 42.558C57.3804 42.558 57.8844 42.4273 58.2484 42.166C58.6217 41.8953 58.8084 41.5313 58.8084 41.074C58.8084 40.6167 58.631 40.262 58.2764 40.01C57.931 39.7487 57.399 39.618 56.6804 39.618H55.7844V38.372L58.0104 35.726H53.5584V34.2H60.2364V35.418L57.8564 38.246Z" fill="#222222"/>
</svg>
