<svg width="12" height="10" viewBox="0 0 12 10" fill="none" xmlns="http://www.w3.org/2000/svg">
<path d="M3.29285 9.70698L0.292849 6.70698C0.200004 6.61414 0.126356 6.50392 0.0761089 6.38261C0.0258618 6.2613 1.95655e-09 6.13129 0 5.99999C-1.95655e-09 5.86868 0.0258618 5.73867 0.0761089 5.61736C0.126356 5.49605 0.200004 5.38583 0.292849 5.29299C0.385693 5.20014 0.495916 5.12649 0.617223 5.07624C0.738531 5.026 0.868547 5.00014 0.999849 5.00014C1.13115 5.00014 1.26117 5.026 1.38247 5.07624C1.50378 5.12649 1.614 5.20014 1.70685 5.29299L3.94285 7.52899L10.2408 0.348985C10.3262 0.249312 10.4304 0.167427 10.5474 0.108007C10.6644 0.0485863 10.7919 0.0127933 10.9228 0.00267167C11.0536 -0.00744991 11.1852 0.00829812 11.3099 0.0490164C11.4347 0.0897347 11.5502 0.154626 11.6498 0.239985C11.7495 0.325344 11.8314 0.4295 11.8908 0.546505C11.9502 0.66351 11.986 0.791073 11.9962 0.921911C12.0063 1.05275 11.9905 1.1843 11.9498 1.30905C11.9091 1.4338 11.8442 1.54931 11.7588 1.64899L4.75885 9.64898C4.66942 9.75377 4.5593 9.83895 4.4354 9.89918C4.3115 9.95941 4.1765 9.99339 4.03885 9.99898C3.90121 10.0034 3.76412 9.97973 3.63589 9.92953C3.50765 9.87934 3.39095 9.80363 3.29285 9.70698Z" fill="#5C5F62"/>
</svg>
