<svg width="18" height="20" viewBox="0 0 18 20" fill="none" xmlns="http://www.w3.org/2000/svg">
<path fill-rule="evenodd" clip-rule="evenodd" d="M0 1C0 0.448 0.45 0 1.004 0H2.509C3.34 0 4.014 0.672 4.014 1.5V2.06L16.588 2.968C17.465 3.023 18.108 3.811 17.985 4.678L17.119 10.712C17.0671 11.0698 16.888 11.3969 16.6145 11.6335C16.3411 11.87 15.9916 12.0001 15.63 12H4.014V14H14.057C14.4517 13.9992 14.8427 14.0762 15.2077 14.2265C15.5726 14.3769 15.9044 14.5977 16.184 14.8763C16.4636 15.1548 16.6856 15.4858 16.8372 15.8502C16.9889 16.2146 17.0673 16.6053 17.068 17C17.068 18.657 15.72 20 14.058 20C13.5775 20.0007 13.1038 19.8862 12.6767 19.666C12.2495 19.4459 11.8814 19.1265 11.6033 18.7347C11.3251 18.3428 11.1449 17.89 11.0779 17.4142C11.0108 16.9384 11.0589 16.4534 11.218 16H5.85C6.00911 16.4534 6.05716 16.9384 5.99013 17.4142C5.92309 17.89 5.74292 18.3428 5.46474 18.7347C5.18655 19.1265 4.81846 19.4459 4.39134 19.666C3.96422 19.8862 3.49053 20.0007 3.01 20C2.61538 20.0007 2.22449 19.9236 1.85966 19.7732C1.49482 19.6228 1.16318 19.402 0.883678 19.1234C0.604174 18.8448 0.382276 18.5139 0.230654 18.1496C0.0790325 17.7853 0.000656063 17.3946 0 17C0 15.694 0.838 14.582 2.007 14.17V3.01V2H1.004C0.872415 2.00026 0.742068 1.97461 0.620399 1.92449C0.49873 1.87438 0.388123 1.80079 0.294893 1.70794C0.201663 1.61508 0.127635 1.50476 0.0770376 1.3833C0.0264398 1.26183 0.000262382 1.13158 0 1ZM4.014 4.064V10H15.194L15.921 4.93L4.014 4.064ZM13.054 17C13.054 16.448 13.503 16 14.057 16C14.611 16 15.061 16.448 15.061 17C15.061 17.552 14.611 18 14.057 18C13.7914 18.0003 13.5366 17.8951 13.3485 17.7076C13.1605 17.5201 13.0545 17.2656 13.054 17ZM2.007 17C2.007 16.448 2.457 16 3.011 16C3.565 16 4.014 16.448 4.014 17C4.014 17.552 3.565 18 3.011 18C2.87942 18.0003 2.74907 17.9746 2.6274 17.9245C2.50573 17.8744 2.39512 17.8008 2.30189 17.7079C2.20866 17.6151 2.13464 17.5048 2.08404 17.3833C2.03344 17.2618 2.00726 17.1316 2.007 17Z" fill="#5C5F62"/>
</svg>
