<svg width="20" height="20" viewBox="0 0 20 20" fill="none" xmlns="http://www.w3.org/2000/svg">
<path fill-rule="evenodd" clip-rule="evenodd" d="M11.379 0C11.7767 0.000350104 12.158 0.158615 12.439 0.44L16.561 4.56C16.7004 4.69948 16.8109 4.86506 16.8862 5.04729C16.9616 5.22952 17.0002 5.42482 17 5.622V18.5C17 18.8978 16.842 19.2794 16.5607 19.5607C16.2794 19.842 15.8978 20 15.5 20H4.5C4.10218 20 3.72064 19.842 3.43934 19.5607C3.15804 19.2794 3 18.8978 3 18.5V1.5C3 1.10218 3.15804 0.720644 3.43934 0.43934C3.72064 0.158035 4.10218 0 4.5 0L11.379 0ZM10 6C10.2652 6 10.5196 6.10536 10.7071 6.29289C10.8946 6.48043 11 6.73478 11 7V10.586L12.293 9.293C12.3852 9.19749 12.4956 9.12131 12.6176 9.0689C12.7396 9.01649 12.8708 8.9889 13.0036 8.98775C13.1364 8.9866 13.2681 9.0119 13.391 9.06218C13.5139 9.11246 13.6255 9.18671 13.7194 9.28061C13.8133 9.3745 13.8875 9.48615 13.9378 9.60905C13.9881 9.73194 14.0134 9.86362 14.0123 9.9964C14.0111 10.1292 13.9835 10.2604 13.9311 10.3824C13.8787 10.5044 13.8025 10.6148 13.707 10.707L10.707 13.707C10.5195 13.8945 10.2652 13.9998 10 13.9998C9.73484 13.9998 9.48053 13.8945 9.293 13.707L6.293 10.707C6.11084 10.5184 6.01005 10.2658 6.01233 10.0036C6.0146 9.7414 6.11977 9.49059 6.30518 9.30518C6.49059 9.11977 6.7414 9.0146 7.0036 9.01233C7.2658 9.01005 7.5184 9.11084 7.707 9.293L9 10.586V7C9 6.73478 9.10536 6.48043 9.29289 6.29289C9.48043 6.10536 9.73478 6 10 6Z" fill="#1DBF73"/>
</svg>
