<svg width="18" height="18" viewBox="0 0 18 18" fill="none" xmlns="http://www.w3.org/2000/svg">
<path d="M10.4146 9L16.7076 2.707C16.8031 2.61476 16.8793 2.50441 16.9317 2.38241C16.9841 2.26041 17.0117 2.12919 17.0128 1.99641C17.014 1.86363 16.9887 1.73195 16.9384 1.60905C16.8881 1.48615 16.8139 1.3745 16.72 1.28061C16.6261 1.18672 16.5144 1.11246 16.3915 1.06218C16.2686 1.0119 16.1369 0.986601 16.0042 0.987754C15.8714 0.988908 15.7402 1.01649 15.6182 1.0689C15.4962 1.12131 15.3858 1.19749 15.2936 1.293L9.00057 7.58601L2.70757 1.293C2.51897 1.11085 2.26636 1.01005 2.00417 1.01233C1.74197 1.01461 1.49116 1.11978 1.30575 1.30519C1.12034 1.49059 1.01517 1.74141 1.0129 2.0036C1.01062 2.2658 1.11141 2.5184 1.29357 2.707L7.58657 9L1.29357 15.293C1.19806 15.3853 1.12188 15.4956 1.06947 15.6176C1.01706 15.7396 0.989473 15.8708 0.988319 16.0036C0.987165 16.1364 1.01247 16.2681 1.06275 16.391C1.11303 16.5139 1.18728 16.6255 1.28117 16.7194C1.37507 16.8133 1.48672 16.8875 1.60962 16.9378C1.73251 16.9881 1.86419 17.0134 1.99697 17.0123C2.12975 17.0111 2.26097 16.9835 2.38297 16.9311C2.50498 16.8787 2.61532 16.8025 2.70757 16.707L9.00057 10.414L15.2936 16.707C15.433 16.8478 15.6113 16.9439 15.8056 16.983C15.9998 17.0221 16.2014 17.0025 16.3845 16.9267C16.5676 16.8509 16.7239 16.7222 16.8337 16.5572C16.9434 16.3922 17.0015 16.1982 17.0006 16C17.0006 15.8687 16.9747 15.7386 16.9245 15.6173C16.8742 15.496 16.8005 15.3858 16.7076 15.293L10.4146 9Z" fill="#656084"/>
</svg>
